<?xml version="1.0" encoding="UTF-8"?>
<svg id="_Слой_1" data-name="Слой 1" xmlns="http://www.w3.org/2000/svg" viewBox="0 0 1080 285.36">
  <defs>
    <style>
      .cls-1 {
        fill-rule: evenodd;
      }

      .cls-1, .cls-2 {
        fill: #101111;
      }
    </style>
  </defs>
  <g>
    <path class="cls-2" d="M710.41,76.3h30.88c21.9,0,38.29,8.51,38.29,30.25v.63c0,18.75-12.29,27.42-29.15,29.78l35.77,52h-9.77l-35.29-51.37h-21.9v51.37h-8.82v-112.66ZM741.77,130.5c18.12,0,28.99-6.93,28.99-23.32v-.63c0-17.33-11.5-23-28.99-23h-22.53v46.95h22.53Z"/>
    <path class="cls-2" d="M800.85,76.3h12.6l39.71,96.74,39.86-96.74h12.29v112.66h-8.67v-101.63l-42.38,101.63h-2.84l-42.38-101.63v101.63h-8.19v-112.66Z"/>
    <path class="cls-2" d="M922,156.66h8.67c1.89,14.18,9.77,26.31,33.25,26.31,17.65,0,29.15-10.24,29.15-24.11,0-15.76-7.56-21.27-30.25-24.74-24.58-3.62-36.4-11.82-36.4-29.62s14.34-29.46,35.45-29.46,33.72,10.4,36.24,28.36h-8.04c-2.68-14.02-11.5-21.11-28.2-21.11s-27.26,8.04-27.26,21.59c0,12.29,6.14,18.91,29.62,22.37,25.21,3.78,37.34,10.87,37.34,31.99,0,17.8-14.97,31.99-37.66,31.99-27.89,0-39.55-15.13-41.91-33.56Z"/>
  </g>
  <path class="cls-1" d="M150.71,68.36c-20.31,0-38.31,9.88-49.46,25.1-2.62,3.58-4.84,7.45-6.64,11.55l-35.74-7.49,44.38,16.95,16.59,6.33,87.06,33.24c3.26-7.48,5.07-15.74,5.07-24.43,0-33.83-27.43-61.26-61.26-61.26M124.79,110.68c5.84-7.97,15.27-13.15,25.91-13.15,15.59,0,28.58,11.12,31.48,25.85l-57.8-12.12c.13-.2.27-.39.41-.58"/>
  <path class="cls-1" d="M150.71,161.71c-17.43,0-31.6-13.89-32.07-31.21l-27.62-14.73h0c-1.03,4.45-1.57,9.08-1.57,13.84,0,33.83,27.43,61.26,61.26,61.26,17.65,0,33.55-7.47,44.73-19.41l-27.59-14.72c-4.96,3.14-10.83,4.97-17.14,4.97"/>
  <path class="cls-2" d="M261.09,189.15h22.69v-47.25c0-12.04,7.35-17.99,17.05-17.99s14.39,5.32,14.39,16.43v48.81h22.68v-52.1c0-21.9-11.42-31.6-27.54-31.6-13.61,0-22.53,6.73-26.59,14.86v-50.06h-22.69v118.9ZM358.28,217h21.9l44.27-109.67h-21.74l-18.3,49.12-19.87-49.12h-24.41l32.54,73.53-14.39,36.14ZM432.02,217h22.69v-40.36c4.22,7.98,13.46,14.24,26.14,14.24,20.32,0,35.67-15.17,35.67-42.24v-1.25c0-27.06-15.66-41.93-35.67-41.93-12.05,0-21.6,6.88-26.14,14.7v-12.83h-22.69v109.67ZM474.11,173.19c-12.37,0-20.17-7.98-20.17-24.41v-1.25c0-16.43,8.12-24.72,20.03-24.72s19.55,8.14,19.55,24.72v1.25c0,15.96-6.89,24.41-19.4,24.41M566.2,190.87c22.38,0,36.47-9.85,39.11-27.53h-21.43c-1.41,6.88-6.57,11.42-17.05,11.42-12.37,0-19.71-7.82-20.34-21.43h58.99v-6.26c0-29.26-18.77-41.61-39.91-41.61-23.76,0-42.07,16.74-42.07,42.55v1.25c0,26.13,17.99,41.61,42.7,41.61M546.81,139.4c1.72-11.58,8.61-18.3,18.77-18.3,10.81,0,17.07,5.95,17.84,18.3h-36.61ZM614.07,189.15h22.69v-40.99c0-15.64,9.7-21.12,26.43-20.96v-21.12c-13.31.16-21.29,5.95-26.43,16.9v-15.64h-22.69v81.82Z"/>
</svg>