<?xml version="1.0" encoding="UTF-8"?>
<svg id="Layer_1" data-name="Layer 1" xmlns="http://www.w3.org/2000/svg" viewBox="0 0 1148 1148">
  <defs>
    <style>
      .cls-1 {
        fill: none;
      }
    </style>
  </defs>
  <path d="M294,58.16c6.54,0,11.84,5.3,11.84,11.84s-5.3,11.84-11.84,11.84-11.84-5.3-11.84-11.84,5.3-11.84,11.84-11.84Z"/>
  <path d="M362.32,58.16h-14.48c-6.54,0-11.84,5.3-11.84,11.84s5.3,11.84,11.84,11.84h16.16v-23.69h-1.68Z"/>
  <polygon points="378 58.16 364 58.16 364 81.84 378 81.84 392 81.84 392 58.16 378 58.16"/>
  <polygon points="406 58.16 392 58.16 392 81.84 406 81.84 420 81.84 420 58.16 406 58.16"/>
  <path d="M436.16,58.16h-16.16v23.69h16.16c6.54,0,11.84-5.3,11.84-11.84s-5.3-11.84-11.84-11.84Z"/>
  <path d="M546,58.16c6.54,0,11.84,5.3,11.84,11.84s-5.3,11.84-11.84,11.84-11.84-5.3-11.84-11.84,5.3-11.84,11.84-11.84Z"/>
  <path d="M614.32,58.16h-14.48c-6.54,0-11.84,5.3-11.84,11.84s5.3,11.84,11.84,11.84h16.16v-23.69h-1.68Z"/>
  <polygon points="630 58.16 616 58.16 616 81.84 630 81.84 644 81.84 644 58.16 630 58.16"/>
  <polygon points="658 58.16 644 58.16 644 81.84 658 81.84 672 81.84 672 58.16 658 58.16"/>
  <path d="M688.16,58.16h-16.16v23.69h16.16c6.54,0,11.84-5.3,11.84-11.84s-5.3-11.84-11.84-11.84Z"/>
  <path d="M770,58.16c6.54,0,11.84,5.3,11.84,11.84s-5.3,11.84-11.84,11.84-11.84-5.3-11.84-11.84,5.3-11.84,11.84-11.84Z"/>
  <path d="M294,86.16c6.54,0,11.84,5.3,11.84,11.84s-5.3,11.84-11.84,11.84-11.84-5.3-11.84-11.84,5.3-11.84,11.84-11.84Z"/>
  <path d="M362.32,86.16h-14.48c-6.54,0-11.84,5.3-11.84,11.84s5.3,11.84,11.84,11.84h16.16v-23.69h-1.68Z"/>
  <polygon points="378 86.16 364 86.16 364 109.84 378 109.84 392 109.84 392 86.16 378 86.16"/>
  <path d="M408.16,86.16h-16.16v23.69h16.16c6.54,0,11.84-5.3,11.84-11.84s-5.3-11.84-11.84-11.84Z"/>
  <path d="M462,86.16c6.54,0,11.84,5.3,11.84,11.84s-5.3,11.84-11.84,11.84-11.84-5.3-11.84-11.84,5.3-11.84,11.84-11.84Z"/>
  <path d="M518,86.16c6.54,0,11.84,5.3,11.84,11.84s-5.3,11.84-11.84,11.84-11.84-5.3-11.84-11.84,5.3-11.84,11.84-11.84Z"/>
  <path d="M602,86.16c6.54,0,11.84,5.3,11.84,11.84s-5.3,11.84-11.84,11.84-11.84-5.3-11.84-11.84,5.3-11.84,11.84-11.84Z"/>
  <path d="M658,86.16c6.54,0,11.84,5.3,11.84,11.84s-5.3,11.84-11.84,11.84-11.84-5.3-11.84-11.84,5.3-11.84,11.84-11.84Z"/>
  <path d="M798,86.16c6.54,0,11.84,5.3,11.84,11.84s-5.3,11.84-11.84,11.84-11.84-5.3-11.84-11.84,5.3-11.84,11.84-11.84Z"/>
  <path d="M854,86.16c6.54,0,11.84,5.3,11.84,11.84s-5.3,11.84-11.84,11.84-11.84-5.3-11.84-11.84,5.3-11.84,11.84-11.84Z"/>
  <path d="M306.32,114.16h-14.48c-6.54,0-11.84,5.3-11.84,11.84s5.3,11.84,11.84,11.84h16.16v-23.69h-1.68Z"/>
  <path d="M324.16,114.16h-16.16v23.69h16.16c6.54,0,11.84-5.3,11.84-11.84s-5.3-11.84-11.84-11.84Z"/>
  <path d="M462,114.16c6.54,0,11.84,5.3,11.84,11.84s-5.3,11.84-11.84,11.84-11.84-5.3-11.84-11.84,5.3-11.84,11.84-11.84Z"/>
  <path d="M518,114.16c6.54,0,11.84,5.3,11.84,11.84s-5.3,11.84-11.84,11.84-11.84-5.3-11.84-11.84,5.3-11.84,11.84-11.84Z"/>
  <path d="M602,114.16c6.54,0,11.84,5.3,11.84,11.84s-5.3,11.84-11.84,11.84-11.84-5.3-11.84-11.84,5.3-11.84,11.84-11.84Z"/>
  <path d="M670.32,114.16h-14.48c-6.54,0-11.84,5.3-11.84,11.84s5.3,11.84,11.84,11.84h16.16v-23.69h-1.68Z"/>
  <path d="M688.16,114.16h-16.16v23.69h16.16c6.54,0,11.84-5.3,11.84-11.84s-5.3-11.84-11.84-11.84Z"/>
  <path d="M754.32,114.16h-14.48c-6.54,0-11.84,5.3-11.84,11.84s5.3,11.84,11.84,11.84h16.16v-23.69h-1.68Z"/>
  <path d="M772.16,114.16h-16.16v23.69h16.16c6.54,0,11.84-5.3,11.84-11.84s-5.3-11.84-11.84-11.84Z"/>
  <path d="M826,114.16c6.54,0,11.84,5.3,11.84,11.84s-5.3,11.84-11.84,11.84-11.84-5.3-11.84-11.84,5.3-11.84,11.84-11.84Z"/>
  <path d="M350,142.16c6.54,0,11.84,5.3,11.84,11.84s-5.3,11.84-11.84,11.84-11.84-5.3-11.84-11.84,5.3-11.84,11.84-11.84Z"/>
  <path d="M446.32,142.16h-14.48c-6.54,0-11.84,5.3-11.84,11.84s5.3,11.84,11.84,11.84h16.16v-23.69h-1.68Z"/>
  <path d="M464.16,142.16h-16.16v23.69h16.16c6.54,0,11.84-5.3,11.84-11.84s-5.3-11.84-11.84-11.84Z"/>
  <path d="M546,142.16c6.54,0,11.84,5.3,11.84,11.84s-5.3,11.84-11.84,11.84-11.84-5.3-11.84-11.84,5.3-11.84,11.84-11.84Z"/>
  <path d="M642.32,142.16h-14.48c-6.54,0-11.84,5.3-11.84,11.84s5.3,11.84,11.84,11.84h16.16v-23.69h-1.68Z"/>
  <path d="M660.16,142.16h-16.16v23.69h16.16c6.54,0,11.84-5.3,11.84-11.84s-5.3-11.84-11.84-11.84Z"/>
  <path d="M714,142.16c6.54,0,11.84,5.3,11.84,11.84s-5.3,11.84-11.84,11.84-11.84-5.3-11.84-11.84,5.3-11.84,11.84-11.84Z"/>
  <path d="M770,142.16c6.54,0,11.84,5.3,11.84,11.84s-5.3,11.84-11.84,11.84-11.84-5.3-11.84-11.84,5.3-11.84,11.84-11.84Z"/>
  <path d="M826,142.16c6.54,0,11.84,5.3,11.84,11.84s-5.3,11.84-11.84,11.84-11.84-5.3-11.84-11.84,5.3-11.84,11.84-11.84Z"/>
  <path d="M294,170.16c6.54,0,11.84,5.3,11.84,11.84s-5.3,11.84-11.84,11.84-11.84-5.3-11.84-11.84,5.3-11.84,11.84-11.84Z"/>
  <path d="M362.32,170.16h-14.48c-6.54,0-11.84,5.3-11.84,11.84s5.3,11.84,11.84,11.84h16.16v-23.69h-1.68Z"/>
  <path d="M380.16,170.16h-16.16v23.69h16.16c6.54,0,11.84-5.3,11.84-11.84s-5.3-11.84-11.84-11.84Z"/>
  <path d="M434,170.16c6.54,0,11.84,5.3,11.84,11.84s-5.3,11.84-11.84,11.84-11.84-5.3-11.84-11.84,5.3-11.84,11.84-11.84Z"/>
  <path d="M518,170.16c6.54,0,11.84,5.3,11.84,11.84s-5.3,11.84-11.84,11.84-11.84-5.3-11.84-11.84,5.3-11.84,11.84-11.84Z"/>
  <path d="M586.32,170.16h-14.48c-6.54,0-11.84,5.3-11.84,11.84s5.3,11.84,11.84,11.84h16.16v-23.69h-1.68Z"/>
  <path d="M604.16,170.16h-16.16v23.69h16.16c6.54,0,11.84-5.3,11.84-11.84s-5.3-11.84-11.84-11.84Z"/>
  <path d="M686,170.16c6.54,0,11.84,5.3,11.84,11.84s-5.3,11.84-11.84,11.84-11.84-5.3-11.84-11.84,5.3-11.84,11.84-11.84Z"/>
  <path d="M798,170.16c6.54,0,11.84,5.3,11.84,11.84s-5.3,11.84-11.84,11.84-11.84-5.3-11.84-11.84,5.3-11.84,11.84-11.84Z"/>
  <path d="M854,170.16c6.54,0,11.84,5.3,11.84,11.84s-5.3,11.84-11.84,11.84-11.84-5.3-11.84-11.84,5.3-11.84,11.84-11.84Z"/>
  <path d="M406,198.16c6.54,0,11.84,5.3,11.84,11.84s-5.3,11.84-11.84,11.84-11.84-5.3-11.84-11.84,5.3-11.84,11.84-11.84Z"/>
  <path d="M502.32,198.16h-14.48c-6.54,0-11.84,5.3-11.84,11.84s5.3,11.84,11.84,11.84h16.16v-23.69h-1.68Z"/>
  <path d="M520.16,198.16h-16.16v23.69h16.16c6.54,0,11.84-5.3,11.84-11.84s-5.3-11.84-11.84-11.84Z"/>
  <path d="M642.32,198.16h-14.48c-6.54,0-11.84,5.3-11.84,11.84s5.3,11.84,11.84,11.84h16.16v-23.69h-1.68Z"/>
  <path d="M660.16,198.16h-16.16v23.69h16.16c6.54,0,11.84-5.3,11.84-11.84s-5.3-11.84-11.84-11.84Z"/>
  <path d="M726.32,198.16h-14.48c-6.54,0-11.84,5.3-11.84,11.84s5.3,11.84,11.84,11.84h16.16v-23.69h-1.68Z"/>
  <path d="M744.16,198.16h-16.16v23.69h16.16c6.54,0,11.84-5.3,11.84-11.84s-5.3-11.84-11.84-11.84Z"/>
  <path d="M294,226.16c6.54,0,11.84,5.3,11.84,11.84s-5.3,11.84-11.84,11.84-11.84-5.3-11.84-11.84,5.3-11.84,11.84-11.84Z"/>
  <path d="M350,226.16c6.54,0,11.84,5.3,11.84,11.84s-5.3,11.84-11.84,11.84-11.84-5.3-11.84-11.84,5.3-11.84,11.84-11.84Z"/>
  <path d="M406,226.16c6.54,0,11.84,5.3,11.84,11.84s-5.3,11.84-11.84,11.84-11.84-5.3-11.84-11.84,5.3-11.84,11.84-11.84Z"/>
  <path d="M462,226.16c6.54,0,11.84,5.3,11.84,11.84s-5.3,11.84-11.84,11.84-11.84-5.3-11.84-11.84,5.3-11.84,11.84-11.84Z"/>
  <path d="M518,226.16c6.54,0,11.84,5.3,11.84,11.84s-5.3,11.84-11.84,11.84-11.84-5.3-11.84-11.84,5.3-11.84,11.84-11.84Z"/>
  <path d="M574,226.16c6.54,0,11.84,5.3,11.84,11.84s-5.3,11.84-11.84,11.84-11.84-5.3-11.84-11.84,5.3-11.84,11.84-11.84Z"/>
  <path d="M630,226.16c6.54,0,11.84,5.3,11.84,11.84s-5.3,11.84-11.84,11.84-11.84-5.3-11.84-11.84,5.3-11.84,11.84-11.84Z"/>
  <path d="M686,226.16c6.54,0,11.84,5.3,11.84,11.84s-5.3,11.84-11.84,11.84-11.84-5.3-11.84-11.84,5.3-11.84,11.84-11.84Z"/>
  <path d="M742,226.16c6.54,0,11.84,5.3,11.84,11.84s-5.3,11.84-11.84,11.84-11.84-5.3-11.84-11.84,5.3-11.84,11.84-11.84Z"/>
  <path d="M798,226.16c6.54,0,11.84,5.3,11.84,11.84s-5.3,11.84-11.84,11.84-11.84-5.3-11.84-11.84,5.3-11.84,11.84-11.84Z"/>
  <path d="M854,226.16c6.54,0,11.84,5.3,11.84,11.84s-5.3,11.84-11.84,11.84-11.84-5.3-11.84-11.84,5.3-11.84,11.84-11.84Z"/>
  <path d="M350,254.16c6.54,0,11.84,5.3,11.84,11.84s-5.3,11.84-11.84,11.84-11.84-5.3-11.84-11.84,5.3-11.84,11.84-11.84Z"/>
  <path d="M418.32,254.16h-14.48c-6.54,0-11.84,5.3-11.84,11.84s5.3,11.84,11.84,11.84h16.16v-23.69h-1.68Z"/>
  <path d="M436.16,254.16h-16.16v23.69h16.16c6.54,0,11.84-5.3,11.84-11.84s-5.3-11.84-11.84-11.84Z"/>
  <path d="M558.32,254.16h-14.48c-6.54,0-11.84,5.3-11.84,11.84s5.3,11.84,11.84,11.84h16.16v-23.69h-1.68Z"/>
  <polygon points="574 254.16 560 254.16 560 277.84 574 277.84 588 277.84 588 254.16 574 254.16"/>
  <path d="M604.16,254.16h-16.16v23.69h16.16c6.54,0,11.84-5.3,11.84-11.84s-5.3-11.84-11.84-11.84Z"/>
  <path d="M714,254.16c6.54,0,11.84,5.3,11.84,11.84s-5.3,11.84-11.84,11.84-11.84-5.3-11.84-11.84,5.3-11.84,11.84-11.84Z"/>
  <path d="M782.32,254.16h-14.48c-6.54,0-11.84,5.3-11.84,11.84s5.3,11.84,11.84,11.84h16.16v-23.69h-1.68Z"/>
  <path d="M800.16,254.16h-16.16v23.69h16.16c6.54,0,11.84-5.3,11.84-11.84s-5.3-11.84-11.84-11.84Z"/>
  <path d="M854,254.16c6.54,0,11.84,5.3,11.84,11.84s-5.3,11.84-11.84,11.84-11.84-5.3-11.84-11.84,5.3-11.84,11.84-11.84Z"/>
  <path d="M70,282.16c6.54,0,11.84,5.3,11.84,11.84s-5.3,11.84-11.84,11.84-11.84-5.3-11.84-11.84,5.3-11.84,11.84-11.84Z"/>
  <path d="M166.32,282.16h-14.48c-6.54,0-11.84,5.3-11.84,11.84s5.3,11.84,11.84,11.84h16.16v-23.69h-1.68Z"/>
  <polygon points="182 282.16 168 282.16 168 305.84 182 305.84 196 305.84 196 282.16 182 282.16"/>
  <polygon points="210 282.16 196 282.16 196 305.84 210 305.84 224 305.84 224 282.16 210 282.16"/>
  <polygon points="238 282.16 224 282.16 224 305.84 238 305.84 252 305.84 252 282.16 238 282.16"/>
  <polygon points="266 282.16 252 282.16 252 305.84 266 305.84 280 305.84 280 282.16 266 282.16"/>
  <polygon points="294 282.16 280 282.16 280 305.84 294 305.84 308 305.84 308 282.16 294 282.16"/>
  <path d="M324.16,282.16h-16.16v23.69h16.16c6.54,0,11.84-5.3,11.84-11.84s-5.3-11.84-11.84-11.84Z"/>
  <path d="M446.32,282.16h-14.48c-6.54,0-11.84,5.3-11.84,11.84s5.3,11.84,11.84,11.84h16.16v-23.69h-1.68Z"/>
  <polygon points="462 282.16 448 282.16 448 305.84 462 305.84 476 305.84 476 282.16 462 282.16"/>
  <path d="M492.16,282.16h-16.16v23.69h16.16c6.54,0,11.84-5.3,11.84-11.84s-5.3-11.84-11.84-11.84Z"/>
  <path d="M726.32,282.16h-14.48c-6.54,0-11.84,5.3-11.84,11.84s5.3,11.84,11.84,11.84h16.16v-23.69h-1.68Z"/>
  <path d="M744.16,282.16h-16.16v23.69h16.16c6.54,0,11.84-5.3,11.84-11.84s-5.3-11.84-11.84-11.84Z"/>
  <path d="M798,282.16c6.54,0,11.84,5.3,11.84,11.84s-5.3,11.84-11.84,11.84-11.84-5.3-11.84-11.84,5.3-11.84,11.84-11.84Z"/>
  <path d="M866.32,282.16h-14.48c-6.54,0-11.84,5.3-11.84,11.84s5.3,11.84,11.84,11.84h16.16v-23.69h-1.68Z"/>
  <path d="M884.16,282.16h-16.16v23.69h16.16c6.54,0,11.84-5.3,11.84-11.84s-5.3-11.84-11.84-11.84Z"/>
  <path d="M966,282.16c6.54,0,11.84,5.3,11.84,11.84s-5.3,11.84-11.84,11.84-11.84-5.3-11.84-11.84,5.3-11.84,11.84-11.84Z"/>
  <path d="M1034.32,282.16h-14.48c-6.54,0-11.84,5.3-11.84,11.84s5.3,11.84,11.84,11.84h16.16v-23.69h-1.68Z"/>
  <polygon points="1050 282.16 1036 282.16 1036 305.84 1050 305.84 1064 305.84 1064 282.16 1050 282.16"/>
  <path d="M1080.16,282.16h-16.16v23.69h16.16c6.54,0,11.84-5.3,11.84-11.84s-5.3-11.84-11.84-11.84Z"/>
  <path d="M98,310.16c6.54,0,11.84,5.3,11.84,11.84s-5.3,11.84-11.84,11.84-11.84-5.3-11.84-11.84,5.3-11.84,11.84-11.84Z"/>
  <path d="M154,310.16c6.54,0,11.84,5.3,11.84,11.84s-5.3,11.84-11.84,11.84-11.84-5.3-11.84-11.84,5.3-11.84,11.84-11.84Z"/>
  <path d="M210,310.16c6.54,0,11.84,5.3,11.84,11.84s-5.3,11.84-11.84,11.84-11.84-5.3-11.84-11.84,5.3-11.84,11.84-11.84Z"/>
  <path d="M266,310.16c6.54,0,11.84,5.3,11.84,11.84s-5.3,11.84-11.84,11.84-11.84-5.3-11.84-11.84,5.3-11.84,11.84-11.84Z"/>
  <path d="M378,310.16c6.54,0,11.84,5.3,11.84,11.84s-5.3,11.84-11.84,11.84-11.84-5.3-11.84-11.84,5.3-11.84,11.84-11.84Z"/>
  <path d="M518,310.16c6.54,0,11.84,5.3,11.84,11.84s-5.3,11.84-11.84,11.84-11.84-5.3-11.84-11.84,5.3-11.84,11.84-11.84Z"/>
  <path d="M574,310.16c6.54,0,11.84,5.3,11.84,11.84s-5.3,11.84-11.84,11.84-11.84-5.3-11.84-11.84,5.3-11.84,11.84-11.84Z"/>
  <path d="M698.32,310.16h-14.48c-6.54,0-11.84,5.3-11.84,11.84s5.3,11.84,11.84,11.84h16.16v-23.69h-1.68Z"/>
  <path d="M716.16,310.16h-16.16v23.69h16.16c6.54,0,11.84-5.3,11.84-11.84s-5.3-11.84-11.84-11.84Z"/>
  <path d="M782.32,310.16h-14.48c-6.54,0-11.84,5.3-11.84,11.84s5.3,11.84,11.84,11.84h16.16v-23.69h-1.68Z"/>
  <polygon points="798 310.16 784 310.16 784 333.84 798 333.84 812 333.84 812 310.16 798 310.16"/>
  <path d="M828.16,310.16h-16.16v23.69h16.16c6.54,0,11.84-5.3,11.84-11.84s-5.3-11.84-11.84-11.84Z"/>
  <path d="M882,310.16c6.54,0,11.84,5.3,11.84,11.84s-5.3,11.84-11.84,11.84-11.84-5.3-11.84-11.84,5.3-11.84,11.84-11.84Z"/>
  <path d="M950.32,310.16h-14.48c-6.54,0-11.84,5.3-11.84,11.84s5.3,11.84,11.84,11.84h16.16v-23.69h-1.68Z"/>
  <path d="M968.16,310.16h-16.16v23.69h16.16c6.54,0,11.84-5.3,11.84-11.84s-5.3-11.84-11.84-11.84Z"/>
  <path d="M1034.32,310.16h-14.48c-6.54,0-11.84,5.3-11.84,11.84s5.3,11.84,11.84,11.84h16.16v-23.69h-1.68Z"/>
  <path d="M1052.16,310.16h-16.16v23.69h16.16c6.54,0,11.84-5.3,11.84-11.84s-5.3-11.84-11.84-11.84Z"/>
  <path d="M110.32,338.16h-14.48c-6.54,0-11.84,5.3-11.84,11.84s5.3,11.84,11.84,11.84h16.16v-23.69h-1.68Z"/>
  <path d="M128.16,338.16h-16.16v23.69h16.16c6.54,0,11.84-5.3,11.84-11.84s-5.3-11.84-11.84-11.84Z"/>
  <path d="M182,338.16c6.54,0,11.84,5.3,11.84,11.84s-5.3,11.84-11.84,11.84-11.84-5.3-11.84-11.84,5.3-11.84,11.84-11.84Z"/>
  <path d="M238,338.16c6.54,0,11.84,5.3,11.84,11.84s-5.3,11.84-11.84,11.84-11.84-5.3-11.84-11.84,5.3-11.84,11.84-11.84Z"/>
  <path d="M350,338.16c6.54,0,11.84,5.3,11.84,11.84s-5.3,11.84-11.84,11.84-11.84-5.3-11.84-11.84,5.3-11.84,11.84-11.84Z"/>
  <path d="M474.32,338.16h-14.48c-6.54,0-11.84,5.3-11.84,11.84s5.3,11.84,11.84,11.84h16.16v-23.69h-1.68Z"/>
  <polygon points="490 338.16 476 338.16 476 361.84 490 361.84 504 361.84 504 338.16 490 338.16"/>
  <polygon points="518 338.16 504 338.16 504 361.84 518 361.84 532 361.84 532 338.16 518 338.16"/>
  <path d="M548.16,338.16h-16.16v23.69h16.16c6.54,0,11.84-5.3,11.84-11.84s-5.3-11.84-11.84-11.84Z"/>
  <path d="M614.32,338.16h-14.48c-6.54,0-11.84,5.3-11.84,11.84s5.3,11.84,11.84,11.84h16.16v-23.69h-1.68Z"/>
  <polygon points="630 338.16 616 338.16 616 361.84 630 361.84 644 361.84 644 338.16 630 338.16"/>
  <polygon points="658 338.16 644 338.16 644 361.84 658 361.84 672 361.84 672 338.16 658 338.16"/>
  <polygon points="686 338.16 672 338.16 672 361.84 686 361.84 700 361.84 700 338.16 686 338.16"/>
  <path d="M716.16,338.16h-16.16v23.69h16.16c6.54,0,11.84-5.3,11.84-11.84s-5.3-11.84-11.84-11.84Z"/>
  <path d="M770,338.16c6.54,0,11.84,5.3,11.84,11.84s-5.3,11.84-11.84,11.84-11.84-5.3-11.84-11.84,5.3-11.84,11.84-11.84Z"/>
  <path d="M838.32,338.16h-14.48c-6.54,0-11.84,5.3-11.84,11.84s5.3,11.84,11.84,11.84h16.16v-23.69h-1.68Z"/>
  <polygon points="854 338.16 840 338.16 840 361.84 854 361.84 868 361.84 868 338.16 854 338.16"/>
  <polygon points="882 338.16 868 338.16 868 361.84 882 361.84 896 361.84 896 338.16 882 338.16"/>
  <path d="M912.16,338.16h-16.16v23.69h16.16c6.54,0,11.84-5.3,11.84-11.84s-5.3-11.84-11.84-11.84Z"/>
  <path d="M1022,338.16c6.54,0,11.84,5.3,11.84,11.84s-5.3,11.84-11.84,11.84-11.84-5.3-11.84-11.84,5.3-11.84,11.84-11.84Z"/>
  <path d="M1078,338.16c6.54,0,11.84,5.3,11.84,11.84s-5.3,11.84-11.84,11.84-11.84-5.3-11.84-11.84,5.3-11.84,11.84-11.84Z"/>
  <path d="M82.32,366.16h-14.48c-6.54,0-11.84,5.3-11.84,11.84s5.3,11.84,11.84,11.84h16.16v-23.69h-1.68Z"/>
  <polygon points="98 366.16 84 366.16 84 389.84 98 389.84 112 389.84 112 366.16 98 366.16"/>
  <path d="M128.16,366.16h-16.16v23.69h16.16c6.54,0,11.84-5.3,11.84-11.84s-5.3-11.84-11.84-11.84Z"/>
  <path d="M194.32,366.16h-14.48c-6.54,0-11.84,5.3-11.84,11.84s5.3,11.84,11.84,11.84h16.16v-23.69h-1.68Z"/>
  <path d="M212.16,366.16h-16.16v23.69h16.16c6.54,0,11.84-5.3,11.84-11.84s-5.3-11.84-11.84-11.84Z"/>
  <path d="M278.32,366.16h-14.48c-6.54,0-11.84,5.3-11.84,11.84s5.3,11.84,11.84,11.84h16.16v-23.69h-1.68Z"/>
  <path d="M296.16,366.16h-16.16v23.69h16.16c6.54,0,11.84-5.3,11.84-11.84s-5.3-11.84-11.84-11.84Z"/>
  <path d="M350,366.16c6.54,0,11.84,5.3,11.84,11.84s-5.3,11.84-11.84,11.84-11.84-5.3-11.84-11.84,5.3-11.84,11.84-11.84Z"/>
  <path d="M406,366.16c6.54,0,11.84,5.3,11.84,11.84s-5.3,11.84-11.84,11.84-11.84-5.3-11.84-11.84,5.3-11.84,11.84-11.84Z"/>
  <path d="M462,366.16c6.54,0,11.84,5.3,11.84,11.84s-5.3,11.84-11.84,11.84-11.84-5.3-11.84-11.84,5.3-11.84,11.84-11.84Z"/>
  <path d="M530.32,366.16h-14.48c-6.54,0-11.84,5.3-11.84,11.84s5.3,11.84,11.84,11.84h16.16v-23.69h-1.68Z"/>
  <polygon points="546 366.16 532 366.16 532 389.84 546 389.84 560 389.84 560 366.16 546 366.16"/>
  <polygon points="574 366.16 560 366.16 560 389.84 574 389.84 588 389.84 588 366.16 574 366.16"/>
  <polygon points="602 366.16 588 366.16 588 389.84 602 389.84 616 389.84 616 366.16 602 366.16"/>
  <path d="M632.16,366.16h-16.16v23.69h16.16c6.54,0,11.84-5.3,11.84-11.84s-5.3-11.84-11.84-11.84Z"/>
  <path d="M714,366.16c6.54,0,11.84,5.3,11.84,11.84s-5.3,11.84-11.84,11.84-11.84-5.3-11.84-11.84,5.3-11.84,11.84-11.84Z"/>
  <path d="M798,366.16c6.54,0,11.84,5.3,11.84,11.84s-5.3,11.84-11.84,11.84-11.84-5.3-11.84-11.84,5.3-11.84,11.84-11.84Z"/>
  <path d="M866.32,366.16h-14.48c-6.54,0-11.84,5.3-11.84,11.84s5.3,11.84,11.84,11.84h16.16v-23.69h-1.68Z"/>
  <path d="M884.16,366.16h-16.16v23.69h16.16c6.54,0,11.84-5.3,11.84-11.84s-5.3-11.84-11.84-11.84Z"/>
  <path d="M938,366.16c6.54,0,11.84,5.3,11.84,11.84s-5.3,11.84-11.84,11.84-11.84-5.3-11.84-11.84,5.3-11.84,11.84-11.84Z"/>
  <path d="M1006.32,366.16h-14.48c-6.54,0-11.84,5.3-11.84,11.84s5.3,11.84,11.84,11.84h16.16v-23.69h-1.68Z"/>
  <polygon points="1022 366.16 1008 366.16 1008 389.84 1022 389.84 1036 389.84 1036 366.16 1022 366.16"/>
  <polygon points="1050 366.16 1036 366.16 1036 389.84 1050 389.84 1064 389.84 1064 366.16 1050 366.16"/>
  <path d="M1080.16,366.16h-16.16v23.69h16.16c6.54,0,11.84-5.3,11.84-11.84s-5.3-11.84-11.84-11.84Z"/>
  <path d="M82.32,394.16h-14.48c-6.54,0-11.84,5.3-11.84,11.84s5.3,11.84,11.84,11.84h16.16v-23.69h-1.68Z"/>
  <path d="M100.16,394.16h-16.16v23.69h16.16c6.54,0,11.84-5.3,11.84-11.84s-5.3-11.84-11.84-11.84Z"/>
  <path d="M222.32,394.16h-14.48c-6.54,0-11.84,5.3-11.84,11.84s5.3,11.84,11.84,11.84h16.16v-23.69h-1.68Z"/>
  <polygon points="238 394.16 224 394.16 224 417.84 238 417.84 252 417.84 252 394.16 238 394.16"/>
  <polygon points="266 394.16 252 394.16 252 417.84 266 417.84 280 417.84 280 394.16 266 394.16"/>
  <polygon points="294 394.16 280 394.16 280 417.84 294 417.84 308 417.84 308 394.16 294 394.16"/>
  <polygon points="322 394.16 308 394.16 308 417.84 322 417.84 336 417.84 336 394.16 322 394.16"/>
  <path d="M352.16,394.16h-16.16v23.69h16.16c6.54,0,11.84-5.3,11.84-11.84s-5.3-11.84-11.84-11.84Z"/>
  <path d="M406,394.16c6.54,0,11.84,5.3,11.84,11.84s-5.3,11.84-11.84,11.84-11.84-5.3-11.84-11.84,5.3-11.84,11.84-11.84Z"/>
  <path d="M490,394.16c6.54,0,11.84,5.3,11.84,11.84s-5.3,11.84-11.84,11.84-11.84-5.3-11.84-11.84,5.3-11.84,11.84-11.84Z"/>
  <path d="M630,394.16c6.54,0,11.84,5.3,11.84,11.84s-5.3,11.84-11.84,11.84-11.84-5.3-11.84-11.84,5.3-11.84,11.84-11.84Z"/>
  <path d="M698.32,394.16h-14.48c-6.54,0-11.84,5.3-11.84,11.84s5.3,11.84,11.84,11.84h16.16v-23.69h-1.68Z"/>
  <polygon points="714 394.16 700 394.16 700 417.84 714 417.84 728 417.84 728 394.16 714 394.16"/>
  <path d="M744.16,394.16h-16.16v23.69h16.16c6.54,0,11.84-5.3,11.84-11.84s-5.3-11.84-11.84-11.84Z"/>
  <path d="M838.32,394.16h-14.48c-6.54,0-11.84,5.3-11.84,11.84s5.3,11.84,11.84,11.84h16.16v-23.69h-1.68Z"/>
  <path d="M856.16,394.16h-16.16v23.69h16.16c6.54,0,11.84-5.3,11.84-11.84s-5.3-11.84-11.84-11.84Z"/>
  <path d="M910,394.16c6.54,0,11.84,5.3,11.84,11.84s-5.3,11.84-11.84,11.84-11.84-5.3-11.84-11.84,5.3-11.84,11.84-11.84Z"/>
  <path d="M994,394.16c6.54,0,11.84,5.3,11.84,11.84s-5.3,11.84-11.84,11.84-11.84-5.3-11.84-11.84,5.3-11.84,11.84-11.84Z"/>
  <path d="M1078,394.16c6.54,0,11.84,5.3,11.84,11.84s-5.3,11.84-11.84,11.84-11.84-5.3-11.84-11.84,5.3-11.84,11.84-11.84Z"/>
  <path d="M70,422.16c6.54,0,11.84,5.3,11.84,11.84s-5.3,11.84-11.84,11.84-11.84-5.3-11.84-11.84,5.3-11.84,11.84-11.84Z"/>
  <path d="M210,422.16c6.54,0,11.84,5.3,11.84,11.84s-5.3,11.84-11.84,11.84-11.84-5.3-11.84-11.84,5.3-11.84,11.84-11.84Z"/>
  <path d="M362.32,422.16h-14.48c-6.54,0-11.84,5.3-11.84,11.84s5.3,11.84,11.84,11.84h16.16v-23.69h-1.68Z"/>
  <path d="M380.16,422.16h-16.16v23.69h16.16c6.54,0,11.84-5.3,11.84-11.84s-5.3-11.84-11.84-11.84Z"/>
  <path d="M446.32,422.16h-14.48c-6.54,0-11.84,5.3-11.84,11.84s5.3,11.84,11.84,11.84h16.16v-23.69h-1.68Z"/>
  <polygon points="462 422.16 448 422.16 448 445.84 462 445.84 476 445.84 476 422.16 462 422.16"/>
  <polygon points="490 422.16 476 422.16 476 445.84 490 445.84 504 445.84 504 422.16 490 422.16"/>
  <path d="M520.16,422.16h-16.16v23.69h16.16c6.54,0,11.84-5.3,11.84-11.84s-5.3-11.84-11.84-11.84Z"/>
  <path d="M574,422.16c6.54,0,11.84,5.3,11.84,11.84s-5.3,11.84-11.84,11.84-11.84-5.3-11.84-11.84,5.3-11.84,11.84-11.84Z"/>
  <path d="M726.32,422.16h-14.48c-6.54,0-11.84,5.3-11.84,11.84s5.3,11.84,11.84,11.84h16.16v-23.69h-1.68Z"/>
  <polygon points="742 422.16 728 422.16 728 445.84 742 445.84 756 445.84 756 422.16 742 422.16"/>
  <polygon points="770 422.16 756 422.16 756 445.84 770 445.84 784 445.84 784 422.16 770 422.16"/>
  <polygon points="798 422.16 784 422.16 784 445.84 798 445.84 812 445.84 812 422.16 798 422.16"/>
  <path d="M828.16,422.16h-16.16v23.69h16.16c6.54,0,11.84-5.3,11.84-11.84s-5.3-11.84-11.84-11.84Z"/>
  <path d="M978.32,422.16h-14.48c-6.54,0-11.84,5.3-11.84,11.84s5.3,11.84,11.84,11.84h16.16v-23.69h-1.68Z"/>
  <path d="M996.16,422.16h-16.16v23.69h16.16c6.54,0,11.84-5.3,11.84-11.84s-5.3-11.84-11.84-11.84Z"/>
  <path d="M1050,422.16c6.54,0,11.84,5.3,11.84,11.84s-5.3,11.84-11.84,11.84-11.84-5.3-11.84-11.84,5.3-11.84,11.84-11.84Z"/>
  <path d="M82.32,450.16h-14.48c-6.54,0-11.84,5.3-11.84,11.84s5.3,11.84,11.84,11.84h16.16v-23.69h-1.68Z"/>
  <path d="M100.16,450.16h-16.16v23.69h16.16c6.54,0,11.84-5.3,11.84-11.84s-5.3-11.84-11.84-11.84Z"/>
  <path d="M182,450.16c6.54,0,11.84,5.3,11.84,11.84s-5.3,11.84-11.84,11.84-11.84-5.3-11.84-11.84,5.3-11.84,11.84-11.84Z"/>
  <path d="M238,450.16c6.54,0,11.84,5.3,11.84,11.84s-5.3,11.84-11.84,11.84-11.84-5.3-11.84-11.84,5.3-11.84,11.84-11.84Z"/>
  <path d="M306.32,450.16h-14.48c-6.54,0-11.84,5.3-11.84,11.84s5.3,11.84,11.84,11.84h16.16v-23.69h-1.68Z"/>
  <polygon points="322 450.16 308 450.16 308 473.84 322 473.84 336 473.84 336 450.16 322 450.16"/>
  <path d="M352.16,450.16h-16.16v23.69h16.16c6.54,0,11.84-5.3,11.84-11.84s-5.3-11.84-11.84-11.84Z"/>
  <path d="M406,450.16c6.54,0,11.84,5.3,11.84,11.84s-5.3,11.84-11.84,11.84-11.84-5.3-11.84-11.84,5.3-11.84,11.84-11.84Z"/>
  <path d="M474.32,450.16h-14.48c-6.54,0-11.84,5.3-11.84,11.84s5.3,11.84,11.84,11.84h16.16v-23.69h-1.68Z"/>
  <path d="M492.16,450.16h-16.16v23.69h16.16c6.54,0,11.84-5.3,11.84-11.84s-5.3-11.84-11.84-11.84Z"/>
  <path d="M586.32,450.16h-14.48c-6.54,0-11.84,5.3-11.84,11.84s5.3,11.84,11.84,11.84h16.16v-23.69h-1.68Z"/>
  <polygon points="602 450.16 588 450.16 588 473.84 602 473.84 616 473.84 616 450.16 602 450.16"/>
  <polygon points="630 450.16 616 450.16 616 473.84 630 473.84 644 473.84 644 450.16 630 450.16"/>
  <path d="M660.16,450.16h-16.16v23.69h16.16c6.54,0,11.84-5.3,11.84-11.84s-5.3-11.84-11.84-11.84Z"/>
  <path d="M770,450.16c6.54,0,11.84,5.3,11.84,11.84s-5.3,11.84-11.84,11.84-11.84-5.3-11.84-11.84,5.3-11.84,11.84-11.84Z"/>
  <path d="M826,450.16c6.54,0,11.84,5.3,11.84,11.84s-5.3,11.84-11.84,11.84-11.84-5.3-11.84-11.84,5.3-11.84,11.84-11.84Z"/>
  <path d="M894.32,450.16h-14.48c-6.54,0-11.84,5.3-11.84,11.84s5.3,11.84,11.84,11.84h16.16v-23.69h-1.68Z"/>
  <path d="M912.16,450.16h-16.16v23.69h16.16c6.54,0,11.84-5.3,11.84-11.84s-5.3-11.84-11.84-11.84Z"/>
  <path d="M978.32,450.16h-14.48c-6.54,0-11.84,5.3-11.84,11.84s5.3,11.84,11.84,11.84h16.16v-23.69h-1.68Z"/>
  <polygon points="994 450.16 980 450.16 980 473.84 994 473.84 1008 473.84 1008 450.16 994 450.16"/>
  <polygon points="1022 450.16 1008 450.16 1008 473.84 1022 473.84 1036 473.84 1036 450.16 1022 450.16"/>
  <polygon points="1050 450.16 1036 450.16 1036 473.84 1050 473.84 1064 473.84 1064 450.16 1050 450.16"/>
  <path d="M1080.16,450.16h-16.16v23.69h16.16c6.54,0,11.84-5.3,11.84-11.84s-5.3-11.84-11.84-11.84Z"/>
  <path d="M98,478.16c6.54,0,11.84,5.3,11.84,11.84s-5.3,11.84-11.84,11.84-11.84-5.3-11.84-11.84,5.3-11.84,11.84-11.84Z"/>
  <path d="M210,478.16c6.54,0,11.84,5.3,11.84,11.84s-5.3,11.84-11.84,11.84-11.84-5.3-11.84-11.84,5.3-11.84,11.84-11.84Z"/>
  <path d="M406,478.16c6.54,0,11.84,5.3,11.84,11.84s-5.3,11.84-11.84,11.84-11.84-5.3-11.84-11.84,5.3-11.84,11.84-11.84Z"/>
  <path d="M490,478.16c6.54,0,11.84,5.3,11.84,11.84s-5.3,11.84-11.84,11.84-11.84-5.3-11.84-11.84,5.3-11.84,11.84-11.84Z"/>
  <path d="M602,478.16c6.54,0,11.84,5.3,11.84,11.84s-5.3,11.84-11.84,11.84-11.84-5.3-11.84-11.84,5.3-11.84,11.84-11.84Z"/>
  <path d="M698.32,478.16h-14.48c-6.54,0-11.84,5.3-11.84,11.84s5.3,11.84,11.84,11.84h16.16v-23.69h-1.68Z"/>
  <polygon points="714 478.16 700 478.16 700 501.84 714 501.84 728 501.84 728 478.16 714 478.16"/>
  <path d="M744.16,478.16h-16.16v23.69h16.16c6.54,0,11.84-5.3,11.84-11.84s-5.3-11.84-11.84-11.84Z"/>
  <path d="M866.32,478.16h-14.48c-6.54,0-11.84,5.3-11.84,11.84s5.3,11.84,11.84,11.84h16.16v-23.69h-1.68Z"/>
  <polygon points="882 478.16 868 478.16 868 501.84 882 501.84 896 501.84 896 478.16 882 478.16"/>
  <polygon points="910 478.16 896 478.16 896 501.84 910 501.84 924 501.84 924 478.16 910 478.16"/>
  <path d="M940.16,478.16h-16.16v23.69h16.16c6.54,0,11.84-5.3,11.84-11.84s-5.3-11.84-11.84-11.84Z"/>
  <path d="M1006.32,478.16h-14.48c-6.54,0-11.84,5.3-11.84,11.84s5.3,11.84,11.84,11.84h16.16v-23.69h-1.68Z"/>
  <path d="M1024.16,478.16h-16.16v23.69h16.16c6.54,0,11.84-5.3,11.84-11.84s-5.3-11.84-11.84-11.84Z"/>
  <path d="M1078,478.16c6.54,0,11.84,5.3,11.84,11.84s-5.3,11.84-11.84,11.84-11.84-5.3-11.84-11.84,5.3-11.84,11.84-11.84Z"/>
  <path d="M98,506.16c6.54,0,11.84,5.3,11.84,11.84s-5.3,11.84-11.84,11.84-11.84-5.3-11.84-11.84,5.3-11.84,11.84-11.84Z"/>
  <path d="M250.32,506.16h-14.48c-6.54,0-11.84,5.3-11.84,11.84s5.3,11.84,11.84,11.84h16.16v-23.69h-1.68Z"/>
  <polygon points="266 506.16 252 506.16 252 529.84 266 529.84 280 529.84 280 506.16 266 506.16"/>
  <polygon points="294 506.16 280 506.16 280 529.84 294 529.84 308 529.84 308 506.16 294 506.16"/>
  <path d="M324.16,506.16h-16.16v23.69h16.16c6.54,0,11.84-5.3,11.84-11.84s-5.3-11.84-11.84-11.84Z"/>
  <path d="M462,506.16c6.54,0,11.84,5.3,11.84,11.84s-5.3,11.84-11.84,11.84-11.84-5.3-11.84-11.84,5.3-11.84,11.84-11.84Z"/>
  <path d="M558.32,506.16h-14.48c-6.54,0-11.84,5.3-11.84,11.84s5.3,11.84,11.84,11.84h16.16v-23.69h-1.68Z"/>
  <polygon points="574 506.16 560 506.16 560 529.84 574 529.84 588 529.84 588 506.16 574 506.16"/>
  <polygon points="602 506.16 588 506.16 588 529.84 602 529.84 616 529.84 616 506.16 602 506.16"/>
  <path d="M632.16,506.16h-16.16v23.69h16.16c6.54,0,11.84-5.3,11.84-11.84s-5.3-11.84-11.84-11.84Z"/>
  <path d="M698.32,506.16h-14.48c-6.54,0-11.84,5.3-11.84,11.84s5.3,11.84,11.84,11.84h16.16v-23.69h-1.68Z"/>
  <polygon points="714 506.16 700 506.16 700 529.84 714 529.84 728 529.84 728 506.16 714 506.16"/>
  <polygon points="742 506.16 728 506.16 728 529.84 742 529.84 756 529.84 756 506.16 742 506.16"/>
  <path d="M772.16,506.16h-16.16v23.69h16.16c6.54,0,11.84-5.3,11.84-11.84s-5.3-11.84-11.84-11.84Z"/>
  <path d="M910,506.16c6.54,0,11.84,5.3,11.84,11.84s-5.3,11.84-11.84,11.84-11.84-5.3-11.84-11.84,5.3-11.84,11.84-11.84Z"/>
  <path d="M1034.32,506.16h-14.48c-6.54,0-11.84,5.3-11.84,11.84s5.3,11.84,11.84,11.84h16.16v-23.69h-1.68Z"/>
  <path d="M1052.16,506.16h-16.16v23.69h16.16c6.54,0,11.84-5.3,11.84-11.84s-5.3-11.84-11.84-11.84Z"/>
  <path d="M110.32,534.16h-14.48c-6.54,0-11.84,5.3-11.84,11.84s5.3,11.84,11.84,11.84h16.16v-23.69h-1.68Z"/>
  <path d="M128.16,534.16h-16.16v23.69h16.16c6.54,0,11.84-5.3,11.84-11.84s-5.3-11.84-11.84-11.84Z"/>
  <path d="M182,534.16c6.54,0,11.84,5.3,11.84,11.84s-5.3,11.84-11.84,11.84-11.84-5.3-11.84-11.84,5.3-11.84,11.84-11.84Z"/>
  <path d="M278.32,534.16h-14.48c-6.54,0-11.84,5.3-11.84,11.84s5.3,11.84,11.84,11.84h16.16v-23.69h-1.68Z"/>
  <polygon points="294 534.16 280 534.16 280 557.84 294 557.84 308 557.84 308 534.16 294 534.16"/>
  <polygon points="322 534.16 308 534.16 308 557.84 322 557.84 336 557.84 336 534.16 322 534.16"/>
  <polygon points="350 534.16 336 534.16 336 557.84 350 557.84 364 557.84 364 534.16 350 534.16"/>
  <polygon points="378 534.16 364 534.16 364 557.84 378 557.84 392 557.84 392 534.16 378 534.16"/>
  <polygon points="406 534.16 392 534.16 392 557.84 406 557.84 420 557.84 420 534.16 406 534.16"/>
  <path d="M436.16,534.16h-16.16v23.69h16.16c6.54,0,11.84-5.3,11.84-11.84s-5.3-11.84-11.84-11.84Z"/>
  <path d="M658,534.16c6.54,0,11.84,5.3,11.84,11.84s-5.3,11.84-11.84,11.84-11.84-5.3-11.84-11.84,5.3-11.84,11.84-11.84Z"/>
  <path d="M826,534.16c6.54,0,11.84,5.3,11.84,11.84s-5.3,11.84-11.84,11.84-11.84-5.3-11.84-11.84,5.3-11.84,11.84-11.84Z"/>
  <path d="M1022,534.16c6.54,0,11.84,5.3,11.84,11.84s-5.3,11.84-11.84,11.84-11.84-5.3-11.84-11.84,5.3-11.84,11.84-11.84Z"/>
  <path d="M82.32,562.16h-14.48c-6.54,0-11.84,5.3-11.84,11.84s5.3,11.84,11.84,11.84h16.16v-23.69h-1.68Z"/>
  <path d="M100.16,562.16h-16.16v23.69h16.16c6.54,0,11.84-5.3,11.84-11.84s-5.3-11.84-11.84-11.84Z"/>
  <path d="M182,562.16c6.54,0,11.84,5.3,11.84,11.84s-5.3,11.84-11.84,11.84-11.84-5.3-11.84-11.84,5.3-11.84,11.84-11.84Z"/>
  <path d="M238,562.16c6.54,0,11.84,5.3,11.84,11.84s-5.3,11.84-11.84,11.84-11.84-5.3-11.84-11.84,5.3-11.84,11.84-11.84Z"/>
  <path d="M322,562.16c6.54,0,11.84,5.3,11.84,11.84s-5.3,11.84-11.84,11.84-11.84-5.3-11.84-11.84,5.3-11.84,11.84-11.84Z"/>
  <path d="M390.32,562.16h-14.48c-6.54,0-11.84,5.3-11.84,11.84s5.3,11.84,11.84,11.84h16.16v-23.69h-1.68Z"/>
  <polygon points="406 562.16 392 562.16 392 585.84 406 585.84 420 585.84 420 562.16 406 562.16"/>
  <path d="M436.16,562.16h-16.16v23.69h16.16c6.54,0,11.84-5.3,11.84-11.84s-5.3-11.84-11.84-11.84Z"/>
  <path d="M530.32,562.16h-14.48c-6.54,0-11.84,5.3-11.84,11.84s5.3,11.84,11.84,11.84h16.16v-23.69h-1.68Z"/>
  <polygon points="546 562.16 532 562.16 532 585.84 546 585.84 560 585.84 560 562.16 546 562.16"/>
  <polygon points="574 562.16 560 562.16 560 585.84 574 585.84 588 585.84 588 562.16 574 562.16"/>
  <path d="M604.16,562.16h-16.16v23.69h16.16c6.54,0,11.84-5.3,11.84-11.84s-5.3-11.84-11.84-11.84Z"/>
  <path d="M726.32,562.16h-14.48c-6.54,0-11.84,5.3-11.84,11.84s5.3,11.84,11.84,11.84h16.16v-23.69h-1.68Z"/>
  <path d="M744.16,562.16h-16.16v23.69h16.16c6.54,0,11.84-5.3,11.84-11.84s-5.3-11.84-11.84-11.84Z"/>
  <path d="M810.32,562.16h-14.48c-6.54,0-11.84,5.3-11.84,11.84s5.3,11.84,11.84,11.84h16.16v-23.69h-1.68Z"/>
  <path d="M828.16,562.16h-16.16v23.69h16.16c6.54,0,11.84-5.3,11.84-11.84s-5.3-11.84-11.84-11.84Z"/>
  <path d="M938,562.16c6.54,0,11.84,5.3,11.84,11.84s-5.3,11.84-11.84,11.84-11.84-5.3-11.84-11.84,5.3-11.84,11.84-11.84Z"/>
  <path d="M1078,562.16c6.54,0,11.84,5.3,11.84,11.84s-5.3,11.84-11.84,11.84-11.84-5.3-11.84-11.84,5.3-11.84,11.84-11.84Z"/>
  <path d="M70,590.16c6.54,0,11.84,5.3,11.84,11.84s-5.3,11.84-11.84,11.84-11.84-5.3-11.84-11.84,5.3-11.84,11.84-11.84Z"/>
  <path d="M126,590.16c6.54,0,11.84,5.3,11.84,11.84s-5.3,11.84-11.84,11.84-11.84-5.3-11.84-11.84,5.3-11.84,11.84-11.84Z"/>
  <path d="M210,590.16c6.54,0,11.84,5.3,11.84,11.84s-5.3,11.84-11.84,11.84-11.84-5.3-11.84-11.84,5.3-11.84,11.84-11.84Z"/>
  <path d="M278.32,590.16h-14.48c-6.54,0-11.84,5.3-11.84,11.84s5.3,11.84,11.84,11.84h16.16v-23.69h-1.68Z"/>
  <path d="M296.16,590.16h-16.16v23.69h16.16c6.54,0,11.84-5.3,11.84-11.84s-5.3-11.84-11.84-11.84Z"/>
  <path d="M362.32,590.16h-14.48c-6.54,0-11.84,5.3-11.84,11.84s5.3,11.84,11.84,11.84h16.16v-23.69h-1.68Z"/>
  <polygon points="378 590.16 364 590.16 364 613.84 378 613.84 392 613.84 392 590.16 378 590.16"/>
  <polygon points="406 590.16 392 590.16 392 613.84 406 613.84 420 613.84 420 590.16 406 590.16"/>
  <path d="M436.16,590.16h-16.16v23.69h16.16c6.54,0,11.84-5.3,11.84-11.84s-5.3-11.84-11.84-11.84Z"/>
  <path d="M502.32,590.16h-14.48c-6.54,0-11.84,5.3-11.84,11.84s5.3,11.84,11.84,11.84h16.16v-23.69h-1.68Z"/>
  <path d="M520.16,590.16h-16.16v23.69h16.16c6.54,0,11.84-5.3,11.84-11.84s-5.3-11.84-11.84-11.84Z"/>
  <path d="M614.32,590.16h-14.48c-6.54,0-11.84,5.3-11.84,11.84s5.3,11.84,11.84,11.84h16.16v-23.69h-1.68Z"/>
  <path d="M632.16,590.16h-16.16v23.69h16.16c6.54,0,11.84-5.3,11.84-11.84s-5.3-11.84-11.84-11.84Z"/>
  <path d="M698.32,590.16h-14.48c-6.54,0-11.84,5.3-11.84,11.84s5.3,11.84,11.84,11.84h16.16v-23.69h-1.68Z"/>
  <polygon points="714 590.16 700 590.16 700 613.84 714 613.84 728 613.84 728 590.16 714 590.16"/>
  <polygon points="742 590.16 728 590.16 728 613.84 742 613.84 756 613.84 756 590.16 742 590.16"/>
  <polygon points="770 590.16 756 590.16 756 613.84 770 613.84 784 613.84 784 590.16 770 590.16"/>
  <polygon points="798 590.16 784 590.16 784 613.84 798 613.84 812 613.84 812 590.16 798 590.16"/>
  <path d="M828.16,590.16h-16.16v23.69h16.16c6.54,0,11.84-5.3,11.84-11.84s-5.3-11.84-11.84-11.84Z"/>
  <path d="M882,590.16c6.54,0,11.84,5.3,11.84,11.84s-5.3,11.84-11.84,11.84-11.84-5.3-11.84-11.84,5.3-11.84,11.84-11.84Z"/>
  <path d="M994,590.16c6.54,0,11.84,5.3,11.84,11.84s-5.3,11.84-11.84,11.84-11.84-5.3-11.84-11.84,5.3-11.84,11.84-11.84Z"/>
  <path d="M1078,590.16c6.54,0,11.84,5.3,11.84,11.84s-5.3,11.84-11.84,11.84-11.84-5.3-11.84-11.84,5.3-11.84,11.84-11.84Z"/>
  <path d="M82.32,618.16h-14.48c-6.54,0-11.84,5.3-11.84,11.84s5.3,11.84,11.84,11.84h16.16v-23.69h-1.68Z"/>
  <path d="M100.16,618.16h-16.16v23.69h16.16c6.54,0,11.84-5.3,11.84-11.84s-5.3-11.84-11.84-11.84Z"/>
  <path d="M154,618.16c6.54,0,11.84,5.3,11.84,11.84s-5.3,11.84-11.84,11.84-11.84-5.3-11.84-11.84,5.3-11.84,11.84-11.84Z"/>
  <path d="M250.32,618.16h-14.48c-6.54,0-11.84,5.3-11.84,11.84s5.3,11.84,11.84,11.84h16.16v-23.69h-1.68Z"/>
  <polygon points="266 618.16 252 618.16 252 641.84 266 641.84 280 641.84 280 618.16 266 618.16"/>
  <path d="M296.16,618.16h-16.16v23.69h16.16c6.54,0,11.84-5.3,11.84-11.84s-5.3-11.84-11.84-11.84Z"/>
  <path d="M390.32,618.16h-14.48c-6.54,0-11.84,5.3-11.84,11.84s5.3,11.84,11.84,11.84h16.16v-23.69h-1.68Z"/>
  <path d="M408.16,618.16h-16.16v23.69h16.16c6.54,0,11.84-5.3,11.84-11.84s-5.3-11.84-11.84-11.84Z"/>
  <path d="M462,618.16c6.54,0,11.84,5.3,11.84,11.84s-5.3,11.84-11.84,11.84-11.84-5.3-11.84-11.84,5.3-11.84,11.84-11.84Z"/>
  <path d="M530.32,618.16h-14.48c-6.54,0-11.84,5.3-11.84,11.84s5.3,11.84,11.84,11.84h16.16v-23.69h-1.68Z"/>
  <path d="M548.16,618.16h-16.16v23.69h16.16c6.54,0,11.84-5.3,11.84-11.84s-5.3-11.84-11.84-11.84Z"/>
  <path d="M630,618.16c6.54,0,11.84,5.3,11.84,11.84s-5.3,11.84-11.84,11.84-11.84-5.3-11.84-11.84,5.3-11.84,11.84-11.84Z"/>
  <path d="M686,618.16c6.54,0,11.84,5.3,11.84,11.84s-5.3,11.84-11.84,11.84-11.84-5.3-11.84-11.84,5.3-11.84,11.84-11.84Z"/>
  <path d="M810.32,618.16h-14.48c-6.54,0-11.84,5.3-11.84,11.84s5.3,11.84,11.84,11.84h16.16v-23.69h-1.68Z"/>
  <polygon points="826 618.16 812 618.16 812 641.84 826 641.84 840 641.84 840 618.16 826 618.16"/>
  <polygon points="854 618.16 840 618.16 840 641.84 854 641.84 868 641.84 868 618.16 854 618.16"/>
  <polygon points="882 618.16 868 618.16 868 641.84 882 641.84 896 641.84 896 618.16 882 618.16"/>
  <polygon points="910 618.16 896 618.16 896 641.84 910 641.84 924 641.84 924 618.16 910 618.16"/>
  <polygon points="938 618.16 924 618.16 924 641.84 938 641.84 952 641.84 952 618.16 938 618.16"/>
  <path d="M968.16,618.16h-16.16v23.69h16.16c6.54,0,11.84-5.3,11.84-11.84s-5.3-11.84-11.84-11.84Z"/>
  <path d="M110.32,646.16h-14.48c-6.54,0-11.84,5.3-11.84,11.84s5.3,11.84,11.84,11.84h16.16v-23.69h-1.68Z"/>
  <path d="M128.16,646.16h-16.16v23.69h16.16c6.54,0,11.84-5.3,11.84-11.84s-5.3-11.84-11.84-11.84Z"/>
  <path d="M182,646.16c6.54,0,11.84,5.3,11.84,11.84s-5.3,11.84-11.84,11.84-11.84-5.3-11.84-11.84,5.3-11.84,11.84-11.84Z"/>
  <path d="M266,646.16c6.54,0,11.84,5.3,11.84,11.84s-5.3,11.84-11.84,11.84-11.84-5.3-11.84-11.84,5.3-11.84,11.84-11.84Z"/>
  <path d="M362.32,646.16h-14.48c-6.54,0-11.84,5.3-11.84,11.84s5.3,11.84,11.84,11.84h16.16v-23.69h-1.68Z"/>
  <polygon points="378 646.16 364 646.16 364 669.84 378 669.84 392 669.84 392 646.16 378 646.16"/>
  <polygon points="406 646.16 392 646.16 392 669.84 406 669.84 420 669.84 420 646.16 406 646.16"/>
  <path d="M436.16,646.16h-16.16v23.69h16.16c6.54,0,11.84-5.3,11.84-11.84s-5.3-11.84-11.84-11.84Z"/>
  <path d="M490,646.16c6.54,0,11.84,5.3,11.84,11.84s-5.3,11.84-11.84,11.84-11.84-5.3-11.84-11.84,5.3-11.84,11.84-11.84Z"/>
  <path d="M546,646.16c6.54,0,11.84,5.3,11.84,11.84s-5.3,11.84-11.84,11.84-11.84-5.3-11.84-11.84,5.3-11.84,11.84-11.84Z"/>
  <path d="M714,646.16c6.54,0,11.84,5.3,11.84,11.84s-5.3,11.84-11.84,11.84-11.84-5.3-11.84-11.84,5.3-11.84,11.84-11.84Z"/>
  <path d="M782.32,646.16h-14.48c-6.54,0-11.84,5.3-11.84,11.84s5.3,11.84,11.84,11.84h16.16v-23.69h-1.68Z"/>
  <polygon points="798 646.16 784 646.16 784 669.84 798 669.84 812 669.84 812 646.16 798 646.16"/>
  <path d="M828.16,646.16h-16.16v23.69h16.16c6.54,0,11.84-5.3,11.84-11.84s-5.3-11.84-11.84-11.84Z"/>
  <path d="M966,646.16c6.54,0,11.84,5.3,11.84,11.84s-5.3,11.84-11.84,11.84-11.84-5.3-11.84-11.84,5.3-11.84,11.84-11.84Z"/>
  <path d="M1022,646.16c6.54,0,11.84,5.3,11.84,11.84s-5.3,11.84-11.84,11.84-11.84-5.3-11.84-11.84,5.3-11.84,11.84-11.84Z"/>
  <path d="M250.32,674.16h-14.48c-6.54,0-11.84,5.3-11.84,11.84s5.3,11.84,11.84,11.84h16.16v-23.69h-1.68Z"/>
  <polygon points="266 674.16 252 674.16 252 697.84 266 697.84 280 697.84 280 674.16 266 674.16"/>
  <path d="M296.16,674.16h-16.16v23.69h16.16c6.54,0,11.84-5.3,11.84-11.84s-5.3-11.84-11.84-11.84Z"/>
  <path d="M378,674.16c6.54,0,11.84,5.3,11.84,11.84s-5.3,11.84-11.84,11.84-11.84-5.3-11.84-11.84,5.3-11.84,11.84-11.84Z"/>
  <path d="M490,674.16c6.54,0,11.84,5.3,11.84,11.84s-5.3,11.84-11.84,11.84-11.84-5.3-11.84-11.84,5.3-11.84,11.84-11.84Z"/>
  <path d="M670.32,674.16h-14.48c-6.54,0-11.84,5.3-11.84,11.84s5.3,11.84,11.84,11.84h16.16v-23.69h-1.68Z"/>
  <polygon points="686 674.16 672 674.16 672 697.84 686 697.84 700 697.84 700 674.16 686 674.16"/>
  <path d="M716.16,674.16h-16.16v23.69h16.16c6.54,0,11.84-5.3,11.84-11.84s-5.3-11.84-11.84-11.84Z"/>
  <path d="M810.32,674.16h-14.48c-6.54,0-11.84,5.3-11.84,11.84s5.3,11.84,11.84,11.84h16.16v-23.69h-1.68Z"/>
  <path d="M828.16,674.16h-16.16v23.69h16.16c6.54,0,11.84-5.3,11.84-11.84s-5.3-11.84-11.84-11.84Z"/>
  <path d="M922.32,674.16h-14.48c-6.54,0-11.84,5.3-11.84,11.84s5.3,11.84,11.84,11.84h16.16v-23.69h-1.68Z"/>
  <path d="M940.16,674.16h-16.16v23.69h16.16c6.54,0,11.84-5.3,11.84-11.84s-5.3-11.84-11.84-11.84Z"/>
  <path d="M994,674.16c6.54,0,11.84,5.3,11.84,11.84s-5.3,11.84-11.84,11.84-11.84-5.3-11.84-11.84,5.3-11.84,11.84-11.84Z"/>
  <path d="M1078,674.16c6.54,0,11.84,5.3,11.84,11.84s-5.3,11.84-11.84,11.84-11.84-5.3-11.84-11.84,5.3-11.84,11.84-11.84Z"/>
  <path d="M70,702.16c6.54,0,11.84,5.3,11.84,11.84s-5.3,11.84-11.84,11.84-11.84-5.3-11.84-11.84,5.3-11.84,11.84-11.84Z"/>
  <path d="M166.32,702.16h-14.48c-6.54,0-11.84,5.3-11.84,11.84s5.3,11.84,11.84,11.84h16.16v-23.69h-1.68Z"/>
  <path d="M184.16,702.16h-16.16v23.69h16.16c6.54,0,11.84-5.3,11.84-11.84s-5.3-11.84-11.84-11.84Z"/>
  <path d="M266,702.16c6.54,0,11.84,5.3,11.84,11.84s-5.3,11.84-11.84,11.84-11.84-5.3-11.84-11.84,5.3-11.84,11.84-11.84Z"/>
  <path d="M322,702.16c6.54,0,11.84,5.3,11.84,11.84s-5.3,11.84-11.84,11.84-11.84-5.3-11.84-11.84,5.3-11.84,11.84-11.84Z"/>
  <path d="M406,702.16c6.54,0,11.84,5.3,11.84,11.84s-5.3,11.84-11.84,11.84-11.84-5.3-11.84-11.84,5.3-11.84,11.84-11.84Z"/>
  <path d="M574,702.16c6.54,0,11.84,5.3,11.84,11.84s-5.3,11.84-11.84,11.84-11.84-5.3-11.84-11.84,5.3-11.84,11.84-11.84Z"/>
  <path d="M630,702.16c6.54,0,11.84,5.3,11.84,11.84s-5.3,11.84-11.84,11.84-11.84-5.3-11.84-11.84,5.3-11.84,11.84-11.84Z"/>
  <path d="M742,702.16c6.54,0,11.84,5.3,11.84,11.84s-5.3,11.84-11.84,11.84-11.84-5.3-11.84-11.84,5.3-11.84,11.84-11.84Z"/>
  <path d="M810.32,702.16h-14.48c-6.54,0-11.84,5.3-11.84,11.84s5.3,11.84,11.84,11.84h16.16v-23.69h-1.68Z"/>
  <path d="M828.16,702.16h-16.16v23.69h16.16c6.54,0,11.84-5.3,11.84-11.84s-5.3-11.84-11.84-11.84Z"/>
  <path d="M894.32,702.16h-14.48c-6.54,0-11.84,5.3-11.84,11.84s5.3,11.84,11.84,11.84h16.16v-23.69h-1.68Z"/>
  <polygon points="910 702.16 896 702.16 896 725.84 910 725.84 924 725.84 924 702.16 910 702.16"/>
  <polygon points="938 702.16 924 702.16 924 725.84 938 725.84 952 725.84 952 702.16 938 702.16"/>
  <polygon points="966 702.16 952 702.16 952 725.84 966 725.84 980 725.84 980 702.16 966 702.16"/>
  <polygon points="994 702.16 980 702.16 980 725.84 994 725.84 1008 725.84 1008 702.16 994 702.16"/>
  <path d="M1024.16,702.16h-16.16v23.69h16.16c6.54,0,11.84-5.3,11.84-11.84s-5.3-11.84-11.84-11.84Z"/>
  <path d="M70,730.16c6.54,0,11.84,5.3,11.84,11.84s-5.3,11.84-11.84,11.84-11.84-5.3-11.84-11.84,5.3-11.84,11.84-11.84Z"/>
  <path d="M126,730.16c6.54,0,11.84,5.3,11.84,11.84s-5.3,11.84-11.84,11.84-11.84-5.3-11.84-11.84,5.3-11.84,11.84-11.84Z"/>
  <path d="M182,730.16c6.54,0,11.84,5.3,11.84,11.84s-5.3,11.84-11.84,11.84-11.84-5.3-11.84-11.84,5.3-11.84,11.84-11.84Z"/>
  <path d="M250.32,730.16h-14.48c-6.54,0-11.84,5.3-11.84,11.84s5.3,11.84,11.84,11.84h16.16v-23.69h-1.68Z"/>
  <path d="M268.16,730.16h-16.16v23.69h16.16c6.54,0,11.84-5.3,11.84-11.84s-5.3-11.84-11.84-11.84Z"/>
  <path d="M322,730.16c6.54,0,11.84,5.3,11.84,11.84s-5.3,11.84-11.84,11.84-11.84-5.3-11.84-11.84,5.3-11.84,11.84-11.84Z"/>
  <path d="M418.32,730.16h-14.48c-6.54,0-11.84,5.3-11.84,11.84s5.3,11.84,11.84,11.84h16.16v-23.69h-1.68Z"/>
  <polygon points="434 730.16 420 730.16 420 753.84 434 753.84 448 753.84 448 730.16 434 730.16"/>
  <polygon points="462 730.16 448 730.16 448 753.84 462 753.84 476 753.84 476 730.16 462 730.16"/>
  <path d="M492.16,730.16h-16.16v23.69h16.16c6.54,0,11.84-5.3,11.84-11.84s-5.3-11.84-11.84-11.84Z"/>
  <path d="M546,730.16c6.54,0,11.84,5.3,11.84,11.84s-5.3,11.84-11.84,11.84-11.84-5.3-11.84-11.84,5.3-11.84,11.84-11.84Z"/>
  <path d="M714,730.16c6.54,0,11.84,5.3,11.84,11.84s-5.3,11.84-11.84,11.84-11.84-5.3-11.84-11.84,5.3-11.84,11.84-11.84Z"/>
  <path d="M838.32,730.16h-14.48c-6.54,0-11.84,5.3-11.84,11.84s5.3,11.84,11.84,11.84h16.16v-23.69h-1.68Z"/>
  <path d="M856.16,730.16h-16.16v23.69h16.16c6.54,0,11.84-5.3,11.84-11.84s-5.3-11.84-11.84-11.84Z"/>
  <path d="M922.32,730.16h-14.48c-6.54,0-11.84,5.3-11.84,11.84s5.3,11.84,11.84,11.84h16.16v-23.69h-1.68Z"/>
  <path d="M940.16,730.16h-16.16v23.69h16.16c6.54,0,11.84-5.3,11.84-11.84s-5.3-11.84-11.84-11.84Z"/>
  <path d="M1062.32,730.16h-14.48c-6.54,0-11.84,5.3-11.84,11.84s5.3,11.84,11.84,11.84h16.16v-23.69h-1.68Z"/>
  <path d="M1080.16,730.16h-16.16v23.69h16.16c6.54,0,11.84-5.3,11.84-11.84s-5.3-11.84-11.84-11.84Z"/>
  <path d="M70,758.16c6.54,0,11.84,5.3,11.84,11.84s-5.3,11.84-11.84,11.84-11.84-5.3-11.84-11.84,5.3-11.84,11.84-11.84Z"/>
  <path d="M126,758.16c6.54,0,11.84,5.3,11.84,11.84s-5.3,11.84-11.84,11.84-11.84-5.3-11.84-11.84,5.3-11.84,11.84-11.84Z"/>
  <path d="M194.32,758.16h-14.48c-6.54,0-11.84,5.3-11.84,11.84s5.3,11.84,11.84,11.84h16.16v-23.69h-1.68Z"/>
  <path d="M212.16,758.16h-16.16v23.69h16.16c6.54,0,11.84-5.3,11.84-11.84s-5.3-11.84-11.84-11.84Z"/>
  <path d="M266,758.16c6.54,0,11.84,5.3,11.84,11.84s-5.3,11.84-11.84,11.84-11.84-5.3-11.84-11.84,5.3-11.84,11.84-11.84Z"/>
  <path d="M334.32,758.16h-14.48c-6.54,0-11.84,5.3-11.84,11.84s5.3,11.84,11.84,11.84h16.16v-23.69h-1.68Z"/>
  <path d="M352.16,758.16h-16.16v23.69h16.16c6.54,0,11.84-5.3,11.84-11.84s-5.3-11.84-11.84-11.84Z"/>
  <path d="M462,758.16c6.54,0,11.84,5.3,11.84,11.84s-5.3,11.84-11.84,11.84-11.84-5.3-11.84-11.84,5.3-11.84,11.84-11.84Z"/>
  <path d="M574,758.16c6.54,0,11.84,5.3,11.84,11.84s-5.3,11.84-11.84,11.84-11.84-5.3-11.84-11.84,5.3-11.84,11.84-11.84Z"/>
  <path d="M670.32,758.16h-14.48c-6.54,0-11.84,5.3-11.84,11.84s5.3,11.84,11.84,11.84h16.16v-23.69h-1.68Z"/>
  <polygon points="686 758.16 672 758.16 672 781.84 686 781.84 700 781.84 700 758.16 686 758.16"/>
  <path d="M716.16,758.16h-16.16v23.69h16.16c6.54,0,11.84-5.3,11.84-11.84s-5.3-11.84-11.84-11.84Z"/>
  <path d="M810.32,758.16h-14.48c-6.54,0-11.84,5.3-11.84,11.84s5.3,11.84,11.84,11.84h16.16v-23.69h-1.68Z"/>
  <polygon points="826 758.16 812 758.16 812 781.84 826 781.84 840 781.84 840 758.16 826 758.16"/>
  <path d="M856.16,758.16h-16.16v23.69h16.16c6.54,0,11.84-5.3,11.84-11.84s-5.3-11.84-11.84-11.84Z"/>
  <path d="M966,758.16c6.54,0,11.84,5.3,11.84,11.84s-5.3,11.84-11.84,11.84-11.84-5.3-11.84-11.84,5.3-11.84,11.84-11.84Z"/>
  <path d="M82.32,786.16h-14.48c-6.54,0-11.84,5.3-11.84,11.84s5.3,11.84,11.84,11.84h16.16v-23.69h-1.68Z"/>
  <path d="M100.16,786.16h-16.16v23.69h16.16c6.54,0,11.84-5.3,11.84-11.84s-5.3-11.84-11.84-11.84Z"/>
  <path d="M182,786.16c6.54,0,11.84,5.3,11.84,11.84s-5.3,11.84-11.84,11.84-11.84-5.3-11.84-11.84,5.3-11.84,11.84-11.84Z"/>
  <path d="M250.32,786.16h-14.48c-6.54,0-11.84,5.3-11.84,11.84s5.3,11.84,11.84,11.84h16.16v-23.69h-1.68Z"/>
  <polygon points="266 786.16 252 786.16 252 809.84 266 809.84 280 809.84 280 786.16 266 786.16"/>
  <path d="M296.16,786.16h-16.16v23.69h16.16c6.54,0,11.84-5.3,11.84-11.84s-5.3-11.84-11.84-11.84Z"/>
  <path d="M362.32,786.16h-14.48c-6.54,0-11.84,5.3-11.84,11.84s5.3,11.84,11.84,11.84h16.16v-23.69h-1.68Z"/>
  <polygon points="378 786.16 364 786.16 364 809.84 378 809.84 392 809.84 392 786.16 378 786.16"/>
  <polygon points="406 786.16 392 786.16 392 809.84 406 809.84 420 809.84 420 786.16 406 786.16"/>
  <path d="M436.16,786.16h-16.16v23.69h16.16c6.54,0,11.84-5.3,11.84-11.84s-5.3-11.84-11.84-11.84Z"/>
  <path d="M490,786.16c6.54,0,11.84,5.3,11.84,11.84s-5.3,11.84-11.84,11.84-11.84-5.3-11.84-11.84,5.3-11.84,11.84-11.84Z"/>
  <path d="M602,786.16c6.54,0,11.84,5.3,11.84,11.84s-5.3,11.84-11.84,11.84-11.84-5.3-11.84-11.84,5.3-11.84,11.84-11.84Z"/>
  <path d="M810.32,786.16h-14.48c-6.54,0-11.84,5.3-11.84,11.84s5.3,11.84,11.84,11.84h16.16v-23.69h-1.68Z"/>
  <path d="M828.16,786.16h-16.16v23.69h16.16c6.54,0,11.84-5.3,11.84-11.84s-5.3-11.84-11.84-11.84Z"/>
  <path d="M882,786.16c6.54,0,11.84,5.3,11.84,11.84s-5.3,11.84-11.84,11.84-11.84-5.3-11.84-11.84,5.3-11.84,11.84-11.84Z"/>
  <path d="M994,786.16c6.54,0,11.84,5.3,11.84,11.84s-5.3,11.84-11.84,11.84-11.84-5.3-11.84-11.84,5.3-11.84,11.84-11.84Z"/>
  <path d="M1062.32,786.16h-14.48c-6.54,0-11.84,5.3-11.84,11.84s5.3,11.84,11.84,11.84h16.16v-23.69h-1.68Z"/>
  <path d="M1080.16,786.16h-16.16v23.69h16.16c6.54,0,11.84-5.3,11.84-11.84s-5.3-11.84-11.84-11.84Z"/>
  <path d="M70,814.16c6.54,0,11.84,5.3,11.84,11.84s-5.3,11.84-11.84,11.84-11.84-5.3-11.84-11.84,5.3-11.84,11.84-11.84Z"/>
  <path d="M166.32,814.16h-14.48c-6.54,0-11.84,5.3-11.84,11.84s5.3,11.84,11.84,11.84h16.16v-23.69h-1.68Z"/>
  <path d="M184.16,814.16h-16.16v23.69h16.16c6.54,0,11.84-5.3,11.84-11.84s-5.3-11.84-11.84-11.84Z"/>
  <path d="M334.32,814.16h-14.48c-6.54,0-11.84,5.3-11.84,11.84s5.3,11.84,11.84,11.84h16.16v-23.69h-1.68Z"/>
  <path d="M352.16,814.16h-16.16v23.69h16.16c6.54,0,11.84-5.3,11.84-11.84s-5.3-11.84-11.84-11.84Z"/>
  <path d="M446.32,814.16h-14.48c-6.54,0-11.84,5.3-11.84,11.84s5.3,11.84,11.84,11.84h16.16v-23.69h-1.68Z"/>
  <path d="M464.16,814.16h-16.16v23.69h16.16c6.54,0,11.84-5.3,11.84-11.84s-5.3-11.84-11.84-11.84Z"/>
  <path d="M518,814.16c6.54,0,11.84,5.3,11.84,11.84s-5.3,11.84-11.84,11.84-11.84-5.3-11.84-11.84,5.3-11.84,11.84-11.84Z"/>
  <path d="M614.32,814.16h-14.48c-6.54,0-11.84,5.3-11.84,11.84s5.3,11.84,11.84,11.84h16.16v-23.69h-1.68Z"/>
  <path d="M632.16,814.16h-16.16v23.69h16.16c6.54,0,11.84-5.3,11.84-11.84s-5.3-11.84-11.84-11.84Z"/>
  <path d="M826,814.16c6.54,0,11.84,5.3,11.84,11.84s-5.3,11.84-11.84,11.84-11.84-5.3-11.84-11.84,5.3-11.84,11.84-11.84Z"/>
  <path d="M950.32,814.16h-14.48c-6.54,0-11.84,5.3-11.84,11.84s5.3,11.84,11.84,11.84h16.16v-23.69h-1.68Z"/>
  <polygon points="966 814.16 952 814.16 952 837.84 966 837.84 980 837.84 980 814.16 966 814.16"/>
  <polygon points="994 814.16 980 814.16 980 837.84 994 837.84 1008 837.84 1008 814.16 994 814.16"/>
  <path d="M1024.16,814.16h-16.16v23.69h16.16c6.54,0,11.84-5.3,11.84-11.84s-5.3-11.84-11.84-11.84Z"/>
  <path d="M70,842.16c6.54,0,11.84,5.3,11.84,11.84s-5.3,11.84-11.84,11.84-11.84-5.3-11.84-11.84,5.3-11.84,11.84-11.84Z"/>
  <path d="M126,842.16c6.54,0,11.84,5.3,11.84,11.84s-5.3,11.84-11.84,11.84-11.84-5.3-11.84-11.84,5.3-11.84,11.84-11.84Z"/>
  <path d="M222.32,842.16h-14.48c-6.54,0-11.84,5.3-11.84,11.84s5.3,11.84,11.84,11.84h16.16v-23.69h-1.68Z"/>
  <polygon points="238 842.16 224 842.16 224 865.84 238 865.84 252 865.84 252 842.16 238 842.16"/>
  <path d="M268.16,842.16h-16.16v23.69h16.16c6.54,0,11.84-5.3,11.84-11.84s-5.3-11.84-11.84-11.84Z"/>
  <path d="M362.32,842.16h-14.48c-6.54,0-11.84,5.3-11.84,11.84s5.3,11.84,11.84,11.84h16.16v-23.69h-1.68Z"/>
  <path d="M380.16,842.16h-16.16v23.69h16.16c6.54,0,11.84-5.3,11.84-11.84s-5.3-11.84-11.84-11.84Z"/>
  <path d="M474.32,842.16h-14.48c-6.54,0-11.84,5.3-11.84,11.84s5.3,11.84,11.84,11.84h16.16v-23.69h-1.68Z"/>
  <polygon points="490 842.16 476 842.16 476 865.84 490 865.84 504 865.84 504 842.16 490 842.16"/>
  <path d="M520.16,842.16h-16.16v23.69h16.16c6.54,0,11.84-5.3,11.84-11.84s-5.3-11.84-11.84-11.84Z"/>
  <path d="M630,842.16c6.54,0,11.84,5.3,11.84,11.84s-5.3,11.84-11.84,11.84-11.84-5.3-11.84-11.84,5.3-11.84,11.84-11.84Z"/>
  <path d="M686,842.16c6.54,0,11.84,5.3,11.84,11.84s-5.3,11.84-11.84,11.84-11.84-5.3-11.84-11.84,5.3-11.84,11.84-11.84Z"/>
  <path d="M754.32,842.16h-14.48c-6.54,0-11.84,5.3-11.84,11.84s5.3,11.84,11.84,11.84h16.16v-23.69h-1.68Z"/>
  <path d="M772.16,842.16h-16.16v23.69h16.16c6.54,0,11.84-5.3,11.84-11.84s-5.3-11.84-11.84-11.84Z"/>
  <path d="M866.32,842.16h-14.48c-6.54,0-11.84,5.3-11.84,11.84s5.3,11.84,11.84,11.84h16.16v-23.69h-1.68Z"/>
  <polygon points="882 842.16 868 842.16 868 865.84 882 865.84 896 865.84 896 842.16 882 842.16"/>
  <polygon points="910 842.16 896 842.16 896 865.84 910 865.84 924 865.84 924 842.16 910 842.16"/>
  <polygon points="938 842.16 924 842.16 924 865.84 938 865.84 952 865.84 952 842.16 938 842.16"/>
  <polygon points="966 842.16 952 842.16 952 865.84 966 865.84 980 865.84 980 842.16 966 842.16"/>
  <polygon points="994 842.16 980 842.16 980 865.84 994 865.84 1008 865.84 1008 842.16 994 842.16"/>
  <polygon points="1022 842.16 1008 842.16 1008 865.84 1022 865.84 1036 865.84 1036 842.16 1022 842.16"/>
  <path d="M1052.16,842.16h-16.16v23.69h16.16c6.54,0,11.84-5.3,11.84-11.84s-5.3-11.84-11.84-11.84Z"/>
  <path d="M294,870.16c6.54,0,11.84,5.3,11.84,11.84s-5.3,11.84-11.84,11.84-11.84-5.3-11.84-11.84,5.3-11.84,11.84-11.84Z"/>
  <path d="M350,870.16c6.54,0,11.84,5.3,11.84,11.84s-5.3,11.84-11.84,11.84-11.84-5.3-11.84-11.84,5.3-11.84,11.84-11.84Z"/>
  <path d="M490,870.16c6.54,0,11.84,5.3,11.84,11.84s-5.3,11.84-11.84,11.84-11.84-5.3-11.84-11.84,5.3-11.84,11.84-11.84Z"/>
  <path d="M558.32,870.16h-14.48c-6.54,0-11.84,5.3-11.84,11.84s5.3,11.84,11.84,11.84h16.16v-23.69h-1.68Z"/>
  <polygon points="574 870.16 560 870.16 560 893.84 574 893.84 588 893.84 588 870.16 574 870.16"/>
  <polygon points="602 870.16 588 870.16 588 893.84 602 893.84 616 893.84 616 870.16 602 870.16"/>
  <path d="M632.16,870.16h-16.16v23.69h16.16c6.54,0,11.84-5.3,11.84-11.84s-5.3-11.84-11.84-11.84Z"/>
  <path d="M810.32,870.16h-14.48c-6.54,0-11.84,5.3-11.84,11.84s5.3,11.84,11.84,11.84h16.16v-23.69h-1.68Z"/>
  <polygon points="826 870.16 812 870.16 812 893.84 826 893.84 840 893.84 840 870.16 826 870.16"/>
  <path d="M856.16,870.16h-16.16v23.69h16.16c6.54,0,11.84-5.3,11.84-11.84s-5.3-11.84-11.84-11.84Z"/>
  <path d="M966,870.16c6.54,0,11.84,5.3,11.84,11.84s-5.3,11.84-11.84,11.84-11.84-5.3-11.84-11.84,5.3-11.84,11.84-11.84Z"/>
  <path d="M1034.32,870.16h-14.48c-6.54,0-11.84,5.3-11.84,11.84s5.3,11.84,11.84,11.84h16.16v-23.69h-1.68Z"/>
  <path d="M1052.16,870.16h-16.16v23.69h16.16c6.54,0,11.84-5.3,11.84-11.84s-5.3-11.84-11.84-11.84Z"/>
  <path d="M294,898.16c6.54,0,11.84,5.3,11.84,11.84s-5.3,11.84-11.84,11.84-11.84-5.3-11.84-11.84,5.3-11.84,11.84-11.84Z"/>
  <path d="M362.32,898.16h-14.48c-6.54,0-11.84,5.3-11.84,11.84s5.3,11.84,11.84,11.84h16.16v-23.69h-1.68Z"/>
  <polygon points="378 898.16 364 898.16 364 921.84 378 921.84 392 921.84 392 898.16 378 898.16"/>
  <polygon points="406 898.16 392 898.16 392 921.84 406 921.84 420 921.84 420 898.16 406 898.16"/>
  <path d="M436.16,898.16h-16.16v23.69h16.16c6.54,0,11.84-5.3,11.84-11.84s-5.3-11.84-11.84-11.84Z"/>
  <path d="M490,898.16c6.54,0,11.84,5.3,11.84,11.84s-5.3,11.84-11.84,11.84-11.84-5.3-11.84-11.84,5.3-11.84,11.84-11.84Z"/>
  <path d="M558.32,898.16h-14.48c-6.54,0-11.84,5.3-11.84,11.84s5.3,11.84,11.84,11.84h16.16v-23.69h-1.68Z"/>
  <polygon points="574 898.16 560 898.16 560 921.84 574 921.84 588 921.84 588 898.16 574 898.16"/>
  <polygon points="602 898.16 588 898.16 588 921.84 602 921.84 616 921.84 616 898.16 602 898.16"/>
  <path d="M632.16,898.16h-16.16v23.69h16.16c6.54,0,11.84-5.3,11.84-11.84s-5.3-11.84-11.84-11.84Z"/>
  <path d="M698.32,898.16h-14.48c-6.54,0-11.84,5.3-11.84,11.84s5.3,11.84,11.84,11.84h16.16v-23.69h-1.68Z"/>
  <path d="M716.16,898.16h-16.16v23.69h16.16c6.54,0,11.84-5.3,11.84-11.84s-5.3-11.84-11.84-11.84Z"/>
  <path d="M854,898.16c6.54,0,11.84,5.3,11.84,11.84s-5.3,11.84-11.84,11.84-11.84-5.3-11.84-11.84,5.3-11.84,11.84-11.84Z"/>
  <path d="M910,898.16c6.54,0,11.84,5.3,11.84,11.84s-5.3,11.84-11.84,11.84-11.84-5.3-11.84-11.84,5.3-11.84,11.84-11.84Z"/>
  <path d="M966,898.16c6.54,0,11.84,5.3,11.84,11.84s-5.3,11.84-11.84,11.84-11.84-5.3-11.84-11.84,5.3-11.84,11.84-11.84Z"/>
  <path d="M1078,898.16c6.54,0,11.84,5.3,11.84,11.84s-5.3,11.84-11.84,11.84-11.84-5.3-11.84-11.84,5.3-11.84,11.84-11.84Z"/>
  <path d="M294,926.16c6.54,0,11.84,5.3,11.84,11.84s-5.3,11.84-11.84,11.84-11.84-5.3-11.84-11.84,5.3-11.84,11.84-11.84Z"/>
  <path d="M434,926.16c6.54,0,11.84,5.3,11.84,11.84s-5.3,11.84-11.84,11.84-11.84-5.3-11.84-11.84,5.3-11.84,11.84-11.84Z"/>
  <path d="M518,926.16c6.54,0,11.84,5.3,11.84,11.84s-5.3,11.84-11.84,11.84-11.84-5.3-11.84-11.84,5.3-11.84,11.84-11.84Z"/>
  <path d="M602,926.16c6.54,0,11.84,5.3,11.84,11.84s-5.3,11.84-11.84,11.84-11.84-5.3-11.84-11.84,5.3-11.84,11.84-11.84Z"/>
  <path d="M686,926.16c6.54,0,11.84,5.3,11.84,11.84s-5.3,11.84-11.84,11.84-11.84-5.3-11.84-11.84,5.3-11.84,11.84-11.84Z"/>
  <path d="M754.32,926.16h-14.48c-6.54,0-11.84,5.3-11.84,11.84s5.3,11.84,11.84,11.84h16.16v-23.69h-1.68Z"/>
  <path d="M772.16,926.16h-16.16v23.69h16.16c6.54,0,11.84-5.3,11.84-11.84s-5.3-11.84-11.84-11.84Z"/>
  <path d="M838.32,926.16h-14.48c-6.54,0-11.84,5.3-11.84,11.84s5.3,11.84,11.84,11.84h16.16v-23.69h-1.68Z"/>
  <path d="M856.16,926.16h-16.16v23.69h16.16c6.54,0,11.84-5.3,11.84-11.84s-5.3-11.84-11.84-11.84Z"/>
  <path d="M966,926.16c6.54,0,11.84,5.3,11.84,11.84s-5.3,11.84-11.84,11.84-11.84-5.3-11.84-11.84,5.3-11.84,11.84-11.84Z"/>
  <path d="M1062.32,926.16h-14.48c-6.54,0-11.84,5.3-11.84,11.84s5.3,11.84,11.84,11.84h16.16v-23.69h-1.68Z"/>
  <path d="M1080.16,926.16h-16.16v23.69h16.16c6.54,0,11.84-5.3,11.84-11.84s-5.3-11.84-11.84-11.84Z"/>
  <path d="M294,954.16c6.54,0,11.84,5.3,11.84,11.84s-5.3,11.84-11.84,11.84-11.84-5.3-11.84-11.84,5.3-11.84,11.84-11.84Z"/>
  <path d="M362.32,954.16h-14.48c-6.54,0-11.84,5.3-11.84,11.84s5.3,11.84,11.84,11.84h16.16v-23.69h-1.68Z"/>
  <path d="M380.16,954.16h-16.16v23.69h16.16c6.54,0,11.84-5.3,11.84-11.84s-5.3-11.84-11.84-11.84Z"/>
  <path d="M462,954.16c6.54,0,11.84,5.3,11.84,11.84s-5.3,11.84-11.84,11.84-11.84-5.3-11.84-11.84,5.3-11.84,11.84-11.84Z"/>
  <path d="M518,954.16c6.54,0,11.84,5.3,11.84,11.84s-5.3,11.84-11.84,11.84-11.84-5.3-11.84-11.84,5.3-11.84,11.84-11.84Z"/>
  <path d="M586.32,954.16h-14.48c-6.54,0-11.84,5.3-11.84,11.84s5.3,11.84,11.84,11.84h16.16v-23.69h-1.68Z"/>
  <polygon points="602 954.16 588 954.16 588 977.84 602 977.84 616 977.84 616 954.16 602 954.16"/>
  <path d="M632.16,954.16h-16.16v23.69h16.16c6.54,0,11.84-5.3,11.84-11.84s-5.3-11.84-11.84-11.84Z"/>
  <path d="M714,954.16c6.54,0,11.84,5.3,11.84,11.84s-5.3,11.84-11.84,11.84-11.84-5.3-11.84-11.84,5.3-11.84,11.84-11.84Z"/>
  <path d="M810.32,954.16h-14.48c-6.54,0-11.84,5.3-11.84,11.84s5.3,11.84,11.84,11.84h16.16v-23.69h-1.68Z"/>
  <polygon points="826 954.16 812 954.16 812 977.84 826 977.84 840 977.84 840 954.16 826 954.16"/>
  <polygon points="854 954.16 840 954.16 840 977.84 854 977.84 868 977.84 868 954.16 854 954.16"/>
  <polygon points="882 954.16 868 954.16 868 977.84 882 977.84 896 977.84 896 954.16 882 954.16"/>
  <polygon points="910 954.16 896 954.16 896 977.84 910 977.84 924 977.84 924 954.16 910 954.16"/>
  <polygon points="938 954.16 924 954.16 924 977.84 938 977.84 952 977.84 952 954.16 938 954.16"/>
  <path d="M968.16,954.16h-16.16v23.69h16.16c6.54,0,11.84-5.3,11.84-11.84s-5.3-11.84-11.84-11.84Z"/>
  <path d="M1062.32,954.16h-14.48c-6.54,0-11.84,5.3-11.84,11.84s5.3,11.84,11.84,11.84h16.16v-23.69h-1.68Z"/>
  <path d="M1080.16,954.16h-16.16v23.69h16.16c6.54,0,11.84-5.3,11.84-11.84s-5.3-11.84-11.84-11.84Z"/>
  <path d="M306.32,982.16h-14.48c-6.54,0-11.84,5.3-11.84,11.84s5.3,11.84,11.84,11.84h16.16v-23.69h-1.68Z"/>
  <path d="M324.16,982.16h-16.16v23.69h16.16c6.54,0,11.84-5.3,11.84-11.84s-5.3-11.84-11.84-11.84Z"/>
  <path d="M418.32,982.16h-14.48c-6.54,0-11.84,5.3-11.84,11.84s5.3,11.84,11.84,11.84h16.16v-23.69h-1.68Z"/>
  <path d="M436.16,982.16h-16.16v23.69h16.16c6.54,0,11.84-5.3,11.84-11.84s-5.3-11.84-11.84-11.84Z"/>
  <path d="M546,982.16c6.54,0,11.84,5.3,11.84,11.84s-5.3,11.84-11.84,11.84-11.84-5.3-11.84-11.84,5.3-11.84,11.84-11.84Z"/>
  <path d="M602,982.16c6.54,0,11.84,5.3,11.84,11.84s-5.3,11.84-11.84,11.84-11.84-5.3-11.84-11.84,5.3-11.84,11.84-11.84Z"/>
  <path d="M726.32,982.16h-14.48c-6.54,0-11.84,5.3-11.84,11.84s5.3,11.84,11.84,11.84h16.16v-23.69h-1.68Z"/>
  <path d="M744.16,982.16h-16.16v23.69h16.16c6.54,0,11.84-5.3,11.84-11.84s-5.3-11.84-11.84-11.84Z"/>
  <path d="M810.32,982.16h-14.48c-6.54,0-11.84,5.3-11.84,11.84s5.3,11.84,11.84,11.84h16.16v-23.69h-1.68Z"/>
  <polygon points="826 982.16 812 982.16 812 1005.84 826 1005.84 840 1005.84 840 982.16 826 982.16"/>
  <polygon points="854 982.16 840 982.16 840 1005.84 854 1005.84 868 1005.84 868 982.16 854 982.16"/>
  <polygon points="882 982.16 868 982.16 868 1005.84 882 1005.84 896 1005.84 896 982.16 882 982.16"/>
  <path d="M912.16,982.16h-16.16v23.69h16.16c6.54,0,11.84-5.3,11.84-11.84s-5.3-11.84-11.84-11.84Z"/>
  <path d="M1006.32,982.16h-14.48c-6.54,0-11.84,5.3-11.84,11.84s5.3,11.84,11.84,11.84h16.16v-23.69h-1.68Z"/>
  <path d="M1024.16,982.16h-16.16v23.69h16.16c6.54,0,11.84-5.3,11.84-11.84s-5.3-11.84-11.84-11.84Z"/>
  <path d="M1078,982.16c6.54,0,11.84,5.3,11.84,11.84s-5.3,11.84-11.84,11.84-11.84-5.3-11.84-11.84,5.3-11.84,11.84-11.84Z"/>
  <path d="M350,1010.16c6.54,0,11.84,5.3,11.84,11.84s-5.3,11.84-11.84,11.84-11.84-5.3-11.84-11.84,5.3-11.84,11.84-11.84Z"/>
  <path d="M546,1010.16c6.54,0,11.84,5.3,11.84,11.84s-5.3,11.84-11.84,11.84-11.84-5.3-11.84-11.84,5.3-11.84,11.84-11.84Z"/>
  <path d="M642.32,1010.16h-14.48c-6.54,0-11.84,5.3-11.84,11.84s5.3,11.84,11.84,11.84h16.16v-23.69h-1.68Z"/>
  <polygon points="658 1010.16 644 1010.16 644 1033.84 658 1033.84 672 1033.84 672 1010.16 658 1010.16"/>
  <polygon points="686 1010.16 672 1010.16 672 1033.84 686 1033.84 700 1033.84 700 1010.16 686 1010.16"/>
  <polygon points="714 1010.16 700 1010.16 700 1033.84 714 1033.84 728 1033.84 728 1010.16 714 1010.16"/>
  <path d="M744.16,1010.16h-16.16v23.69h16.16c6.54,0,11.84-5.3,11.84-11.84s-5.3-11.84-11.84-11.84Z"/>
  <path d="M826,1010.16c6.54,0,11.84,5.3,11.84,11.84s-5.3,11.84-11.84,11.84-11.84-5.3-11.84-11.84,5.3-11.84,11.84-11.84Z"/>
  <path d="M882,1010.16c6.54,0,11.84,5.3,11.84,11.84s-5.3,11.84-11.84,11.84-11.84-5.3-11.84-11.84,5.3-11.84,11.84-11.84Z"/>
  <path d="M966,1010.16c6.54,0,11.84,5.3,11.84,11.84s-5.3,11.84-11.84,11.84-11.84-5.3-11.84-11.84,5.3-11.84,11.84-11.84Z"/>
  <path d="M1078,1010.16c6.54,0,11.84,5.3,11.84,11.84s-5.3,11.84-11.84,11.84-11.84-5.3-11.84-11.84,5.3-11.84,11.84-11.84Z"/>
  <path d="M322,1038.16c6.54,0,11.84,5.3,11.84,11.84s-5.3,11.84-11.84,11.84-11.84-5.3-11.84-11.84,5.3-11.84,11.84-11.84Z"/>
  <path d="M434,1038.16c6.54,0,11.84,5.3,11.84,11.84s-5.3,11.84-11.84,11.84-11.84-5.3-11.84-11.84,5.3-11.84,11.84-11.84Z"/>
  <path d="M490,1038.16c6.54,0,11.84,5.3,11.84,11.84s-5.3,11.84-11.84,11.84-11.84-5.3-11.84-11.84,5.3-11.84,11.84-11.84Z"/>
  <path d="M546,1038.16c6.54,0,11.84,5.3,11.84,11.84s-5.3,11.84-11.84,11.84-11.84-5.3-11.84-11.84,5.3-11.84,11.84-11.84Z"/>
  <path d="M630,1038.16c6.54,0,11.84,5.3,11.84,11.84s-5.3,11.84-11.84,11.84-11.84-5.3-11.84-11.84,5.3-11.84,11.84-11.84Z"/>
  <path d="M838.32,1038.16h-14.48c-6.54,0-11.84,5.3-11.84,11.84s5.3,11.84,11.84,11.84h16.16v-23.69h-1.68Z"/>
  <path d="M856.16,1038.16h-16.16v23.69h16.16c6.54,0,11.84-5.3,11.84-11.84s-5.3-11.84-11.84-11.84Z"/>
  <path d="M978.32,1038.16h-14.48c-6.54,0-11.84,5.3-11.84,11.84s5.3,11.84,11.84,11.84h16.16v-23.69h-1.68Z"/>
  <polygon points="994 1038.16 980 1038.16 980 1061.84 994 1061.84 1008 1061.84 1008 1038.16 994 1038.16"/>
  <polygon points="1022 1038.16 1008 1038.16 1008 1061.84 1022 1061.84 1036 1061.84 1036 1038.16 1022 1038.16"/>
  <polygon points="1050 1038.16 1036 1038.16 1036 1061.84 1050 1061.84 1064 1061.84 1064 1038.16 1050 1038.16"/>
  <path d="M1080.16,1038.16h-16.16v23.69h16.16c6.54,0,11.84-5.3,11.84-11.84s-5.3-11.84-11.84-11.84Z"/>
  <path d="M294,1066.16c6.54,0,11.84,5.3,11.84,11.84s-5.3,11.84-11.84,11.84-11.84-5.3-11.84-11.84,5.3-11.84,11.84-11.84Z"/>
  <path d="M362.32,1066.16h-14.48c-6.54,0-11.84,5.3-11.84,11.84s5.3,11.84,11.84,11.84h16.16v-23.69h-1.68Z"/>
  <polygon points="378 1066.16 364 1066.16 364 1089.84 378 1089.84 392 1089.84 392 1066.16 378 1066.16"/>
  <polygon points="406 1066.16 392 1066.16 392 1089.84 406 1089.84 420 1089.84 420 1066.16 406 1066.16"/>
  <path d="M436.16,1066.16h-16.16v23.69h16.16c6.54,0,11.84-5.3,11.84-11.84s-5.3-11.84-11.84-11.84Z"/>
  <path d="M586.32,1066.16h-14.48c-6.54,0-11.84,5.3-11.84,11.84s5.3,11.84,11.84,11.84h16.16v-23.69h-1.68Z"/>
  <path d="M604.16,1066.16h-16.16v23.69h16.16c6.54,0,11.84-5.3,11.84-11.84s-5.3-11.84-11.84-11.84Z"/>
  <path d="M742,1066.16c6.54,0,11.84,5.3,11.84,11.84s-5.3,11.84-11.84,11.84-11.84-5.3-11.84-11.84,5.3-11.84,11.84-11.84Z"/>
  <path d="M854,1066.16c6.54,0,11.84,5.3,11.84,11.84s-5.3,11.84-11.84,11.84-11.84-5.3-11.84-11.84,5.3-11.84,11.84-11.84Z"/>
  <path d="M922.32,1066.16h-14.48c-6.54,0-11.84,5.3-11.84,11.84s5.3,11.84,11.84,11.84h16.16v-23.69h-1.68Z"/>
  <path d="M940.16,1066.16h-16.16v23.69h16.16c6.54,0,11.84-5.3,11.84-11.84s-5.3-11.84-11.84-11.84Z"/>
  <path d="M994,1066.16c6.54,0,11.84,5.3,11.84,11.84s-5.3,11.84-11.84,11.84-11.84-5.3-11.84-11.84,5.3-11.84,11.84-11.84Z"/>
  <path d="M1078,1066.16c6.54,0,11.84,5.3,11.84,11.84s-5.3,11.84-11.84,11.84-11.84-5.3-11.84-11.84,5.3-11.84,11.84-11.84Z"/>
  <g>
    <path class="cls-1" d="M85.4,185.79v-63.64c0-20.26,16.83-36.75,37.52-36.75h62.17c20.69,0,37.51,16.49,37.51,36.75v100.44l-99.68-.03c-20.7,0-37.52-16.5-37.52-36.77Z"/>
    <path d="M56,185.79v-63.64c0-36.47,30.03-66.15,66.92-66.15h62.17c36.89,0,66.91,29.68,66.91,66.15v129.85l-129.08-.04c-36.89,0-66.92-29.67-66.92-66.17ZM85.4,185.79c0,20.27,16.83,36.77,37.52,36.77l99.68.03v-100.44c0-20.26-16.83-36.75-37.51-36.75h-62.17c-20.69,0-37.52,16.49-37.52,36.75v63.64Z"/>
  </g>
  <g>
    <path class="cls-1" d="M1062.6,185.79v-63.64c0-20.26-16.83-36.75-37.52-36.75h-62.17c-20.69,0-37.51,16.49-37.51,36.75v100.44l99.68-.03c20.7,0,37.52-16.5,37.52-36.77Z"/>
    <path d="M1092,185.79v-63.64c0-36.47-30.03-66.15-66.92-66.15h-62.17c-36.89,0-66.91,29.68-66.91,66.15v129.85l129.08-.04c36.89,0,66.92-29.67,66.92-66.17ZM1062.6,185.79c0,20.27-16.83,36.77-37.52,36.77l-99.68.03v-100.44c0-20.26,16.83-36.75,37.51-36.75h62.17c20.69,0,37.52,16.49,37.52,36.75v63.64Z"/>
  </g>
  <g>
    <path class="cls-1" d="M85.4,962.21v63.64c0,20.26,16.83,36.75,37.52,36.75h62.17c20.69,0,37.51-16.49,37.51-36.75v-100.44l-99.68.03c-20.7,0-37.52,16.5-37.52,36.77Z"/>
    <path d="M56,962.21v63.64c0,36.47,30.03,66.15,66.92,66.15h62.17c36.89,0,66.91-29.68,66.91-66.15v-129.85l-129.08.04c-36.89,0-66.92,29.67-66.92,66.17ZM85.4,962.21c0-20.27,16.83-36.77,37.52-36.77l99.68-.03v100.44c0,20.26-16.83,36.75-37.51,36.75h-62.17c-20.69,0-37.52-16.49-37.52-36.75v-63.64Z"/>
  </g>
  <path d="M134.97,196c-12.68,0-22.99-10.11-22.99-22.52v-38.97c0-3.88,1.01-7.53,2.77-10.72,1.7-3.07,4.12-5.71,7.02-7.71,3.73-2.57,8.28-4.08,13.18-4.08h38.07c12.66,0,22.97,10.1,22.97,22.51v38.97c0,12.41-10.31,22.52-22.97,22.52h-38.06Z"/>
  <path d="M974.97,196c-12.68,0-22.99-10.11-22.99-22.52v-38.97c0-3.88,1.01-7.53,2.77-10.72,1.7-3.07,4.12-5.71,7.02-7.71,3.73-2.57,8.28-4.08,13.18-4.08h38.07c12.66,0,22.97,10.1,22.97,22.51v38.97c0,12.41-10.31,22.52-22.97,22.52h-38.06Z"/>
  <path d="M134.97,1036c-12.68,0-22.99-10.11-22.99-22.52v-38.97c0-3.88,1.01-7.53,2.77-10.72,1.7-3.07,4.12-5.71,7.02-7.71,3.73-2.57,8.28-4.08,13.18-4.08h38.07c12.66,0,22.97,10.1,22.97,22.51v38.97c0,12.41-10.31,22.52-22.97,22.52h-38.06Z"/>
</svg>