<?xml version="1.0" encoding="UTF-8"?>
<svg id="Layer_1" data-name="Layer 1" xmlns="http://www.w3.org/2000/svg" viewBox="0 0 1148 1148">
  <defs>
    <style>
      .cls-1 {
        fill: none;
      }
    </style>
  </defs>
  <rect x="280" y="56" width="28" height="28"/>
  <rect x="336" y="56" width="28" height="28"/>
  <rect x="364" y="56" width="28" height="28"/>
  <rect x="504" y="56" width="28" height="28"/>
  <rect x="560" y="56" width="28" height="28"/>
  <rect x="588" y="56" width="28" height="28"/>
  <rect x="616" y="56" width="28" height="28"/>
  <rect x="644" y="56" width="28" height="28"/>
  <rect x="672" y="56" width="28" height="28"/>
  <rect x="700" y="56" width="28" height="28"/>
  <rect x="840" y="56" width="28" height="28"/>
  <rect x="280" y="84" width="28" height="28"/>
  <rect x="336" y="84" width="28" height="28"/>
  <rect x="392" y="84" width="28" height="28"/>
  <rect x="476" y="84" width="28" height="28"/>
  <rect x="504" y="84" width="28" height="28"/>
  <rect x="560" y="84" width="28" height="28"/>
  <rect x="644" y="84" width="28" height="28"/>
  <rect x="700" y="84" width="28" height="28"/>
  <rect x="728" y="84" width="28" height="28"/>
  <rect x="756" y="84" width="28" height="28"/>
  <rect x="784" y="84" width="28" height="28"/>
  <rect x="840" y="84" width="28" height="28"/>
  <rect x="336" y="112" width="28" height="28"/>
  <rect x="364" y="112" width="28" height="28"/>
  <rect x="420" y="112" width="28" height="28"/>
  <rect x="476" y="112" width="28" height="28"/>
  <rect x="560" y="112" width="28" height="28"/>
  <rect x="588" y="112" width="28" height="28"/>
  <rect x="672" y="112" width="28" height="28"/>
  <rect x="728" y="112" width="28" height="28"/>
  <rect x="756" y="112" width="28" height="28"/>
  <rect x="280" y="140" width="28" height="28"/>
  <rect x="308" y="140" width="28" height="28"/>
  <rect x="364" y="140" width="28" height="28"/>
  <rect x="392" y="140" width="28" height="28"/>
  <rect x="420" y="140" width="28" height="28"/>
  <rect x="448" y="140" width="28" height="28"/>
  <rect x="476" y="140" width="28" height="28"/>
  <rect x="504" y="140" width="28" height="28"/>
  <rect x="532" y="140" width="28" height="28"/>
  <rect x="588" y="140" width="28" height="28"/>
  <rect x="672" y="140" width="28" height="28"/>
  <rect x="700" y="140" width="28" height="28"/>
  <rect x="756" y="140" width="28" height="28"/>
  <rect x="784" y="140" width="28" height="28"/>
  <rect x="812" y="140" width="28" height="28"/>
  <rect x="840" y="140" width="28" height="28"/>
  <rect x="308" y="168" width="28" height="28"/>
  <rect x="336" y="168" width="28" height="28"/>
  <rect x="364" y="168" width="28" height="28"/>
  <rect x="392" y="168" width="28" height="28"/>
  <rect x="476" y="168" width="28" height="28"/>
  <rect x="560" y="168" width="28" height="28"/>
  <rect x="588" y="168" width="28" height="28"/>
  <rect x="672" y="168" width="28" height="28"/>
  <rect x="728" y="168" width="28" height="28"/>
  <rect x="756" y="168" width="28" height="28"/>
  <rect x="784" y="168" width="28" height="28"/>
  <rect x="812" y="168" width="28" height="28"/>
  <rect x="840" y="168" width="28" height="28"/>
  <rect x="308" y="196" width="28" height="28"/>
  <rect x="476" y="196" width="28" height="28"/>
  <rect x="504" y="196" width="28" height="28"/>
  <rect x="532" y="196" width="28" height="28"/>
  <rect x="560" y="196" width="28" height="28"/>
  <rect x="588" y="196" width="28" height="28"/>
  <rect x="616" y="196" width="28" height="28"/>
  <rect x="672" y="196" width="28" height="28"/>
  <rect x="784" y="196" width="28" height="28"/>
  <rect x="280" y="224" width="28" height="28"/>
  <rect x="336" y="224" width="28" height="28"/>
  <rect x="392" y="224" width="28" height="28"/>
  <rect x="448" y="224" width="28" height="28"/>
  <rect x="504" y="224" width="28" height="28"/>
  <rect x="560" y="224" width="28" height="28"/>
  <rect x="616" y="224" width="28" height="28"/>
  <rect x="672" y="224" width="28" height="28"/>
  <rect x="728" y="224" width="28" height="28"/>
  <rect x="784" y="224" width="28" height="28"/>
  <rect x="840" y="224" width="28" height="28"/>
  <rect x="280" y="252" width="28" height="28"/>
  <rect x="364" y="252" width="28" height="28"/>
  <rect x="392" y="252" width="28" height="28"/>
  <rect x="448" y="252" width="28" height="28"/>
  <rect x="532" y="252" width="28" height="28"/>
  <rect x="588" y="252" width="28" height="28"/>
  <rect x="728" y="252" width="28" height="28"/>
  <rect x="784" y="252" width="28" height="28"/>
  <rect x="840" y="252" width="28" height="28"/>
  <rect x="56" y="280" width="28" height="28"/>
  <rect x="112" y="280" width="28" height="28"/>
  <rect x="140" y="280" width="28" height="28"/>
  <rect x="196" y="280" width="28" height="28"/>
  <rect x="224" y="280" width="28" height="28"/>
  <rect x="252" y="280" width="28" height="28"/>
  <rect x="308" y="280" width="28" height="28"/>
  <rect x="392" y="280" width="28" height="28"/>
  <rect x="448" y="280" width="28" height="28"/>
  <rect x="504" y="280" width="28" height="28"/>
  <rect x="532" y="280" width="28" height="28"/>
  <rect x="560" y="280" width="28" height="28"/>
  <rect x="644" y="280" width="28" height="28"/>
  <rect x="700" y="280" width="28" height="28"/>
  <rect x="812" y="280" width="28" height="28"/>
  <rect x="840" y="280" width="28" height="28"/>
  <rect x="896" y="280" width="28" height="28"/>
  <rect x="980" y="280" width="28" height="28"/>
  <rect x="1036" y="280" width="28" height="28"/>
  <rect x="1064" y="280" width="28" height="28"/>
  <rect x="56" y="308" width="28" height="28"/>
  <rect x="84" y="308" width="28" height="28"/>
  <rect x="112" y="308" width="28" height="28"/>
  <rect x="140" y="308" width="28" height="28"/>
  <rect x="168" y="308" width="28" height="28"/>
  <rect x="252" y="308" width="28" height="28"/>
  <rect x="336" y="308" width="28" height="28"/>
  <rect x="364" y="308" width="28" height="28"/>
  <rect x="420" y="308" width="28" height="28"/>
  <rect x="476" y="308" width="28" height="28"/>
  <rect x="504" y="308" width="28" height="28"/>
  <rect x="560" y="308" width="28" height="28"/>
  <rect x="588" y="308" width="28" height="28"/>
  <rect x="616" y="308" width="28" height="28"/>
  <rect x="644" y="308" width="28" height="28"/>
  <rect x="700" y="308" width="28" height="28"/>
  <rect x="756" y="308" width="28" height="28"/>
  <rect x="840" y="308" width="28" height="28"/>
  <rect x="924" y="308" width="28" height="28"/>
  <rect x="980" y="308" width="28" height="28"/>
  <rect x="1008" y="308" width="28" height="28"/>
  <rect x="1036" y="308" width="28" height="28"/>
  <rect x="140" y="336" width="28" height="28"/>
  <rect x="224" y="336" width="28" height="28"/>
  <rect x="252" y="336" width="28" height="28"/>
  <rect x="280" y="336" width="28" height="28"/>
  <rect x="336" y="336" width="28" height="28"/>
  <rect x="364" y="336" width="28" height="28"/>
  <rect x="420" y="336" width="28" height="28"/>
  <rect x="476" y="336" width="28" height="28"/>
  <rect x="532" y="336" width="28" height="28"/>
  <rect x="560" y="336" width="28" height="28"/>
  <rect x="672" y="336" width="28" height="28"/>
  <rect x="700" y="336" width="28" height="28"/>
  <rect x="728" y="336" width="28" height="28"/>
  <rect x="756" y="336" width="28" height="28"/>
  <rect x="840" y="336" width="28" height="28"/>
  <rect x="868" y="336" width="28" height="28"/>
  <rect x="924" y="336" width="28" height="28"/>
  <rect x="952" y="336" width="28" height="28"/>
  <rect x="980" y="336" width="28" height="28"/>
  <rect x="56" y="364" width="28" height="28"/>
  <rect x="140" y="364" width="28" height="28"/>
  <rect x="168" y="364" width="28" height="28"/>
  <rect x="252" y="364" width="28" height="28"/>
  <rect x="336" y="364" width="28" height="28"/>
  <rect x="364" y="364" width="28" height="28"/>
  <rect x="476" y="364" width="28" height="28"/>
  <rect x="560" y="364" width="28" height="28"/>
  <rect x="588" y="364" width="28" height="28"/>
  <rect x="616" y="364" width="28" height="28"/>
  <rect x="756" y="364" width="28" height="28"/>
  <rect x="784" y="364" width="28" height="28"/>
  <rect x="896" y="364" width="28" height="28"/>
  <rect x="980" y="364" width="28" height="28"/>
  <rect x="1008" y="364" width="28" height="28"/>
  <rect x="140" y="392" width="28" height="28"/>
  <rect x="196" y="392" width="28" height="28"/>
  <rect x="224" y="392" width="28" height="28"/>
  <rect x="252" y="392" width="28" height="28"/>
  <rect x="280" y="392" width="28" height="28"/>
  <rect x="308" y="392" width="28" height="28"/>
  <rect x="336" y="392" width="28" height="28"/>
  <rect x="364" y="392" width="28" height="28"/>
  <rect x="448" y="392" width="28" height="28"/>
  <rect x="532" y="392" width="28" height="28"/>
  <rect x="728" y="392" width="28" height="28"/>
  <rect x="756" y="392" width="28" height="28"/>
  <rect x="784" y="392" width="28" height="28"/>
  <rect x="812" y="392" width="28" height="28"/>
  <rect x="868" y="392" width="28" height="28"/>
  <rect x="896" y="392" width="28" height="28"/>
  <rect x="924" y="392" width="28" height="28"/>
  <rect x="952" y="392" width="28" height="28"/>
  <rect x="1008" y="392" width="28" height="28"/>
  <rect x="1036" y="392" width="28" height="28"/>
  <rect x="1064" y="392" width="28" height="28"/>
  <rect x="84" y="420" width="28" height="28"/>
  <rect x="168" y="420" width="28" height="28"/>
  <rect x="196" y="420" width="28" height="28"/>
  <rect x="280" y="420" width="28" height="28"/>
  <rect x="308" y="420" width="28" height="28"/>
  <rect x="336" y="420" width="28" height="28"/>
  <rect x="364" y="420" width="28" height="28"/>
  <rect x="392" y="420" width="28" height="28"/>
  <rect x="448" y="420" width="28" height="28"/>
  <rect x="476" y="420" width="28" height="28"/>
  <rect x="504" y="420" width="28" height="28"/>
  <rect x="532" y="420" width="28" height="28"/>
  <rect x="588" y="420" width="28" height="28"/>
  <rect x="784" y="420" width="28" height="28"/>
  <rect x="812" y="420" width="28" height="28"/>
  <rect x="868" y="420" width="28" height="28"/>
  <rect x="896" y="420" width="28" height="28"/>
  <rect x="924" y="420" width="28" height="28"/>
  <rect x="952" y="420" width="28" height="28"/>
  <rect x="980" y="420" width="28" height="28"/>
  <rect x="1036" y="420" width="28" height="28"/>
  <rect x="1064" y="420" width="28" height="28"/>
  <rect x="112" y="448" width="28" height="28"/>
  <rect x="168" y="448" width="28" height="28"/>
  <rect x="196" y="448" width="28" height="28"/>
  <rect x="224" y="448" width="28" height="28"/>
  <rect x="252" y="448" width="28" height="28"/>
  <rect x="336" y="448" width="28" height="28"/>
  <rect x="448" y="448" width="28" height="28"/>
  <rect x="560" y="448" width="28" height="28"/>
  <rect x="588" y="448" width="28" height="28"/>
  <rect x="672" y="448" width="28" height="28"/>
  <rect x="728" y="448" width="28" height="28"/>
  <rect x="784" y="448" width="28" height="28"/>
  <rect x="952" y="448" width="28" height="28"/>
  <rect x="1008" y="448" width="28" height="28"/>
  <rect x="1036" y="448" width="28" height="28"/>
  <rect x="56" y="476" width="28" height="28"/>
  <rect x="84" y="476" width="28" height="28"/>
  <rect x="140" y="476" width="28" height="28"/>
  <rect x="168" y="476" width="28" height="28"/>
  <rect x="196" y="476" width="28" height="28"/>
  <rect x="252" y="476" width="28" height="28"/>
  <rect x="308" y="476" width="28" height="28"/>
  <rect x="336" y="476" width="28" height="28"/>
  <rect x="364" y="476" width="28" height="28"/>
  <rect x="504" y="476" width="28" height="28"/>
  <rect x="560" y="476" width="28" height="28"/>
  <rect x="616" y="476" width="28" height="28"/>
  <rect x="644" y="476" width="28" height="28"/>
  <rect x="672" y="476" width="28" height="28"/>
  <rect x="700" y="476" width="28" height="28"/>
  <rect x="728" y="476" width="28" height="28"/>
  <rect x="812" y="476" width="28" height="28"/>
  <rect x="868" y="476" width="28" height="28"/>
  <rect x="924" y="476" width="28" height="28"/>
  <rect x="952" y="476" width="28" height="28"/>
  <rect x="1064" y="476" width="28" height="28"/>
  <rect x="112" y="504" width="28" height="28"/>
  <rect x="168" y="504" width="28" height="28"/>
  <rect x="224" y="504" width="28" height="28"/>
  <rect x="252" y="504" width="28" height="28"/>
  <rect x="308" y="504" width="28" height="28"/>
  <rect x="336" y="504" width="28" height="28"/>
  <rect x="392" y="504" width="28" height="28"/>
  <rect x="420" y="504" width="28" height="28"/>
  <rect x="448" y="504" width="28" height="28"/>
  <rect x="476" y="504" width="28" height="28"/>
  <rect x="560" y="504" width="28" height="28"/>
  <rect x="588" y="504" width="28" height="28"/>
  <rect x="616" y="504" width="28" height="28"/>
  <rect x="644" y="504" width="28" height="28"/>
  <rect x="672" y="504" width="28" height="28"/>
  <rect x="700" y="504" width="28" height="28"/>
  <rect x="756" y="504" width="28" height="28"/>
  <rect x="812" y="504" width="28" height="28"/>
  <rect x="924" y="504" width="28" height="28"/>
  <rect x="980" y="504" width="28" height="28"/>
  <rect x="1008" y="504" width="28" height="28"/>
  <rect x="84" y="532" width="28" height="28"/>
  <rect x="112" y="532" width="28" height="28"/>
  <rect x="140" y="532" width="28" height="28"/>
  <rect x="252" y="532" width="28" height="28"/>
  <rect x="308" y="532" width="28" height="28"/>
  <rect x="336" y="532" width="28" height="28"/>
  <rect x="364" y="532" width="28" height="28"/>
  <rect x="392" y="532" width="28" height="28"/>
  <rect x="420" y="532" width="28" height="28"/>
  <rect x="504" y="532" width="28" height="28"/>
  <rect x="560" y="532" width="28" height="28"/>
  <rect x="616" y="532" width="28" height="28"/>
  <rect x="644" y="532" width="28" height="28"/>
  <rect x="672" y="532" width="28" height="28"/>
  <rect x="700" y="532" width="28" height="28"/>
  <rect x="728" y="532" width="28" height="28"/>
  <rect x="756" y="532" width="28" height="28"/>
  <rect x="784" y="532" width="28" height="28"/>
  <rect x="812" y="532" width="28" height="28"/>
  <rect x="896" y="532" width="28" height="28"/>
  <rect x="980" y="532" width="28" height="28"/>
  <rect x="1008" y="532" width="28" height="28"/>
  <rect x="1036" y="532" width="28" height="28"/>
  <rect x="1064" y="532" width="28" height="28"/>
  <rect x="56" y="560" width="28" height="28"/>
  <rect x="112" y="560" width="28" height="28"/>
  <rect x="140" y="560" width="28" height="28"/>
  <rect x="168" y="560" width="28" height="28"/>
  <rect x="224" y="560" width="28" height="28"/>
  <rect x="252" y="560" width="28" height="28"/>
  <rect x="280" y="560" width="28" height="28"/>
  <rect x="336" y="560" width="28" height="28"/>
  <rect x="364" y="560" width="28" height="28"/>
  <rect x="476" y="560" width="28" height="28"/>
  <rect x="504" y="560" width="28" height="28"/>
  <rect x="672" y="560" width="28" height="28"/>
  <rect x="756" y="560" width="28" height="28"/>
  <rect x="812" y="560" width="28" height="28"/>
  <rect x="868" y="560" width="28" height="28"/>
  <rect x="924" y="560" width="28" height="28"/>
  <rect x="952" y="560" width="28" height="28"/>
  <rect x="1036" y="560" width="28" height="28"/>
  <rect x="1064" y="560" width="28" height="28"/>
  <rect x="56" y="588" width="28" height="28"/>
  <rect x="84" y="588" width="28" height="28"/>
  <rect x="168" y="588" width="28" height="28"/>
  <rect x="196" y="588" width="28" height="28"/>
  <rect x="532" y="588" width="28" height="28"/>
  <rect x="560" y="588" width="28" height="28"/>
  <rect x="588" y="588" width="28" height="28"/>
  <rect x="616" y="588" width="28" height="28"/>
  <rect x="672" y="588" width="28" height="28"/>
  <rect x="784" y="588" width="28" height="28"/>
  <rect x="812" y="588" width="28" height="28"/>
  <rect x="896" y="588" width="28" height="28"/>
  <rect x="924" y="588" width="28" height="28"/>
  <rect x="980" y="588" width="28" height="28"/>
  <rect x="1036" y="588" width="28" height="28"/>
  <rect x="112" y="616" width="28" height="28"/>
  <rect x="140" y="616" width="28" height="28"/>
  <rect x="196" y="616" width="28" height="28"/>
  <rect x="224" y="616" width="28" height="28"/>
  <rect x="252" y="616" width="28" height="28"/>
  <rect x="308" y="616" width="28" height="28"/>
  <rect x="392" y="616" width="28" height="28"/>
  <rect x="420" y="616" width="28" height="28"/>
  <rect x="448" y="616" width="28" height="28"/>
  <rect x="476" y="616" width="28" height="28"/>
  <rect x="532" y="616" width="28" height="28"/>
  <rect x="588" y="616" width="28" height="28"/>
  <rect x="644" y="616" width="28" height="28"/>
  <rect x="728" y="616" width="28" height="28"/>
  <rect x="784" y="616" width="28" height="28"/>
  <rect x="840" y="616" width="28" height="28"/>
  <rect x="868" y="616" width="28" height="28"/>
  <rect x="924" y="616" width="28" height="28"/>
  <rect x="952" y="616" width="28" height="28"/>
  <rect x="1064" y="616" width="28" height="28"/>
  <rect x="56" y="644" width="28" height="28"/>
  <rect x="84" y="644" width="28" height="28"/>
  <rect x="168" y="644" width="28" height="28"/>
  <rect x="252" y="644" width="28" height="28"/>
  <rect x="280" y="644" width="28" height="28"/>
  <rect x="336" y="644" width="28" height="28"/>
  <rect x="420" y="644" width="28" height="28"/>
  <rect x="448" y="644" width="28" height="28"/>
  <rect x="476" y="644" width="28" height="28"/>
  <rect x="504" y="644" width="28" height="28"/>
  <rect x="588" y="644" width="28" height="28"/>
  <rect x="616" y="644" width="28" height="28"/>
  <rect x="700" y="644" width="28" height="28"/>
  <rect x="840" y="644" width="28" height="28"/>
  <rect x="980" y="644" width="28" height="28"/>
  <rect x="84" y="672" width="28" height="28"/>
  <rect x="140" y="672" width="28" height="28"/>
  <rect x="196" y="672" width="28" height="28"/>
  <rect x="224" y="672" width="28" height="28"/>
  <rect x="252" y="672" width="28" height="28"/>
  <rect x="336" y="672" width="28" height="28"/>
  <rect x="420" y="672" width="28" height="28"/>
  <rect x="504" y="672" width="28" height="28"/>
  <rect x="532" y="672" width="28" height="28"/>
  <rect x="560" y="672" width="28" height="28"/>
  <rect x="700" y="672" width="28" height="28"/>
  <rect x="728" y="672" width="28" height="28"/>
  <rect x="868" y="672" width="28" height="28"/>
  <rect x="896" y="672" width="28" height="28"/>
  <rect x="924" y="672" width="28" height="28"/>
  <rect x="56" y="700" width="28" height="28"/>
  <rect x="84" y="700" width="28" height="28"/>
  <rect x="140" y="700" width="28" height="28"/>
  <rect x="168" y="700" width="28" height="28"/>
  <rect x="280" y="700" width="28" height="28"/>
  <rect x="308" y="700" width="28" height="28"/>
  <rect x="392" y="700" width="28" height="28"/>
  <rect x="420" y="700" width="28" height="28"/>
  <rect x="560" y="700" width="28" height="28"/>
  <rect x="588" y="700" width="28" height="28"/>
  <rect x="700" y="700" width="28" height="28"/>
  <rect x="756" y="700" width="28" height="28"/>
  <rect x="784" y="700" width="28" height="28"/>
  <rect x="812" y="700" width="28" height="28"/>
  <rect x="952" y="700" width="28" height="28"/>
  <rect x="980" y="700" width="28" height="28"/>
  <rect x="1008" y="700" width="28" height="28"/>
  <rect x="1036" y="700" width="28" height="28"/>
  <rect x="56" y="728" width="28" height="28"/>
  <rect x="112" y="728" width="28" height="28"/>
  <rect x="196" y="728" width="28" height="28"/>
  <rect x="224" y="728" width="28" height="28"/>
  <rect x="252" y="728" width="28" height="28"/>
  <rect x="280" y="728" width="28" height="28"/>
  <rect x="308" y="728" width="28" height="28"/>
  <rect x="336" y="728" width="28" height="28"/>
  <rect x="420" y="728" width="28" height="28"/>
  <rect x="504" y="728" width="28" height="28"/>
  <rect x="532" y="728" width="28" height="28"/>
  <rect x="616" y="728" width="28" height="28"/>
  <rect x="672" y="728" width="28" height="28"/>
  <rect x="728" y="728" width="28" height="28"/>
  <rect x="756" y="728" width="28" height="28"/>
  <rect x="784" y="728" width="28" height="28"/>
  <rect x="812" y="728" width="28" height="28"/>
  <rect x="840" y="728" width="28" height="28"/>
  <rect x="868" y="728" width="28" height="28"/>
  <rect x="896" y="728" width="28" height="28"/>
  <rect x="952" y="728" width="28" height="28"/>
  <rect x="1008" y="728" width="28" height="28"/>
  <rect x="1036" y="728" width="28" height="28"/>
  <rect x="1064" y="728" width="28" height="28"/>
  <rect x="112" y="756" width="28" height="28"/>
  <rect x="196" y="756" width="28" height="28"/>
  <rect x="252" y="756" width="28" height="28"/>
  <rect x="392" y="756" width="28" height="28"/>
  <rect x="420" y="756" width="28" height="28"/>
  <rect x="448" y="756" width="28" height="28"/>
  <rect x="476" y="756" width="28" height="28"/>
  <rect x="504" y="756" width="28" height="28"/>
  <rect x="560" y="756" width="28" height="28"/>
  <rect x="588" y="756" width="28" height="28"/>
  <rect x="728" y="756" width="28" height="28"/>
  <rect x="756" y="756" width="28" height="28"/>
  <rect x="812" y="756" width="28" height="28"/>
  <rect x="840" y="756" width="28" height="28"/>
  <rect x="896" y="756" width="28" height="28"/>
  <rect x="924" y="756" width="28" height="28"/>
  <rect x="952" y="756" width="28" height="28"/>
  <rect x="980" y="756" width="28" height="28"/>
  <rect x="1008" y="756" width="28" height="28"/>
  <rect x="1036" y="756" width="28" height="28"/>
  <rect x="1064" y="756" width="28" height="28"/>
  <rect x="84" y="784" width="28" height="28"/>
  <rect x="112" y="784" width="28" height="28"/>
  <rect x="196" y="784" width="28" height="28"/>
  <rect x="224" y="784" width="28" height="28"/>
  <rect x="280" y="784" width="28" height="28"/>
  <rect x="308" y="784" width="28" height="28"/>
  <rect x="336" y="784" width="28" height="28"/>
  <rect x="364" y="784" width="28" height="28"/>
  <rect x="504" y="784" width="28" height="28"/>
  <rect x="532" y="784" width="28" height="28"/>
  <rect x="560" y="784" width="28" height="28"/>
  <rect x="588" y="784" width="28" height="28"/>
  <rect x="616" y="784" width="28" height="28"/>
  <rect x="644" y="784" width="28" height="28"/>
  <rect x="672" y="784" width="28" height="28"/>
  <rect x="728" y="784" width="28" height="28"/>
  <rect x="784" y="784" width="28" height="28"/>
  <rect x="868" y="784" width="28" height="28"/>
  <rect x="896" y="784" width="28" height="28"/>
  <rect x="924" y="784" width="28" height="28"/>
  <rect x="980" y="784" width="28" height="28"/>
  <rect x="1008" y="784" width="28" height="28"/>
  <rect x="1036" y="784" width="28" height="28"/>
  <rect x="56" y="812" width="28" height="28"/>
  <rect x="112" y="812" width="28" height="28"/>
  <rect x="140" y="812" width="28" height="28"/>
  <rect x="252" y="812" width="28" height="28"/>
  <rect x="280" y="812" width="28" height="28"/>
  <rect x="364" y="812" width="28" height="28"/>
  <rect x="616" y="812" width="28" height="28"/>
  <rect x="644" y="812" width="28" height="28"/>
  <rect x="672" y="812" width="28" height="28"/>
  <rect x="700" y="812" width="28" height="28"/>
  <rect x="784" y="812" width="28" height="28"/>
  <rect x="924" y="812" width="28" height="28"/>
  <rect x="980" y="812" width="28" height="28"/>
  <rect x="1036" y="812" width="28" height="28"/>
  <rect x="112" y="840" width="28" height="28"/>
  <rect x="140" y="840" width="28" height="28"/>
  <rect x="196" y="840" width="28" height="28"/>
  <rect x="224" y="840" width="28" height="28"/>
  <rect x="308" y="840" width="28" height="28"/>
  <rect x="336" y="840" width="28" height="28"/>
  <rect x="364" y="840" width="28" height="28"/>
  <rect x="392" y="840" width="28" height="28"/>
  <rect x="420" y="840" width="28" height="28"/>
  <rect x="560" y="840" width="28" height="28"/>
  <rect x="588" y="840" width="28" height="28"/>
  <rect x="616" y="840" width="28" height="28"/>
  <rect x="644" y="840" width="28" height="28"/>
  <rect x="672" y="840" width="28" height="28"/>
  <rect x="756" y="840" width="28" height="28"/>
  <rect x="840" y="840" width="28" height="28"/>
  <rect x="868" y="840" width="28" height="28"/>
  <rect x="896" y="840" width="28" height="28"/>
  <rect x="924" y="840" width="28" height="28"/>
  <rect x="952" y="840" width="28" height="28"/>
  <rect x="980" y="840" width="28" height="28"/>
  <rect x="1008" y="840" width="28" height="28"/>
  <rect x="1036" y="840" width="28" height="28"/>
  <rect x="280" y="868" width="28" height="28"/>
  <rect x="308" y="868" width="28" height="28"/>
  <rect x="336" y="868" width="28" height="28"/>
  <rect x="364" y="868" width="28" height="28"/>
  <rect x="448" y="868" width="28" height="28"/>
  <rect x="476" y="868" width="28" height="28"/>
  <rect x="560" y="868" width="28" height="28"/>
  <rect x="616" y="868" width="28" height="28"/>
  <rect x="672" y="868" width="28" height="28"/>
  <rect x="700" y="868" width="28" height="28"/>
  <rect x="728" y="868" width="28" height="28"/>
  <rect x="756" y="868" width="28" height="28"/>
  <rect x="784" y="868" width="28" height="28"/>
  <rect x="812" y="868" width="28" height="28"/>
  <rect x="840" y="868" width="28" height="28"/>
  <rect x="952" y="868" width="28" height="28"/>
  <rect x="1008" y="868" width="28" height="28"/>
  <rect x="1064" y="868" width="28" height="28"/>
  <rect x="280" y="896" width="28" height="28"/>
  <rect x="420" y="896" width="28" height="28"/>
  <rect x="448" y="896" width="28" height="28"/>
  <rect x="476" y="896" width="28" height="28"/>
  <rect x="532" y="896" width="28" height="28"/>
  <rect x="560" y="896" width="28" height="28"/>
  <rect x="672" y="896" width="28" height="28"/>
  <rect x="784" y="896" width="28" height="28"/>
  <rect x="840" y="896" width="28" height="28"/>
  <rect x="896" y="896" width="28" height="28"/>
  <rect x="952" y="896" width="28" height="28"/>
  <rect x="1008" y="896" width="28" height="28"/>
  <rect x="1036" y="896" width="28" height="28"/>
  <rect x="1064" y="896" width="28" height="28"/>
  <rect x="280" y="924" width="28" height="28"/>
  <rect x="308" y="924" width="28" height="28"/>
  <rect x="364" y="924" width="28" height="28"/>
  <rect x="392" y="924" width="28" height="28"/>
  <rect x="420" y="924" width="28" height="28"/>
  <rect x="504" y="924" width="28" height="28"/>
  <rect x="532" y="924" width="28" height="28"/>
  <rect x="560" y="924" width="28" height="28"/>
  <rect x="672" y="924" width="28" height="28"/>
  <rect x="700" y="924" width="28" height="28"/>
  <rect x="784" y="924" width="28" height="28"/>
  <rect x="812" y="924" width="28" height="28"/>
  <rect x="840" y="924" width="28" height="28"/>
  <rect x="952" y="924" width="28" height="28"/>
  <rect x="336" y="952" width="28" height="28"/>
  <rect x="420" y="952" width="28" height="28"/>
  <rect x="532" y="952" width="28" height="28"/>
  <rect x="560" y="952" width="28" height="28"/>
  <rect x="588" y="952" width="28" height="28"/>
  <rect x="616" y="952" width="28" height="28"/>
  <rect x="644" y="952" width="28" height="28"/>
  <rect x="700" y="952" width="28" height="28"/>
  <rect x="728" y="952" width="28" height="28"/>
  <rect x="784" y="952" width="28" height="28"/>
  <rect x="840" y="952" width="28" height="28"/>
  <rect x="868" y="952" width="28" height="28"/>
  <rect x="896" y="952" width="28" height="28"/>
  <rect x="924" y="952" width="28" height="28"/>
  <rect x="952" y="952" width="28" height="28"/>
  <rect x="980" y="952" width="28" height="28"/>
  <rect x="1036" y="952" width="28" height="28"/>
  <rect x="1064" y="952" width="28" height="28"/>
  <rect x="280" y="980" width="28" height="28"/>
  <rect x="308" y="980" width="28" height="28"/>
  <rect x="336" y="980" width="28" height="28"/>
  <rect x="364" y="980" width="28" height="28"/>
  <rect x="392" y="980" width="28" height="28"/>
  <rect x="420" y="980" width="28" height="28"/>
  <rect x="448" y="980" width="28" height="28"/>
  <rect x="504" y="980" width="28" height="28"/>
  <rect x="588" y="980" width="28" height="28"/>
  <rect x="644" y="980" width="28" height="28"/>
  <rect x="868" y="980" width="28" height="28"/>
  <rect x="896" y="980" width="28" height="28"/>
  <rect x="952" y="980" width="28" height="28"/>
  <rect x="1008" y="980" width="28" height="28"/>
  <rect x="1036" y="980" width="28" height="28"/>
  <rect x="1064" y="980" width="28" height="28"/>
  <rect x="280" y="1008" width="28" height="28"/>
  <rect x="364" y="1008" width="28" height="28"/>
  <rect x="392" y="1008" width="28" height="28"/>
  <rect x="532" y="1008" width="28" height="28"/>
  <rect x="560" y="1008" width="28" height="28"/>
  <rect x="616" y="1008" width="28" height="28"/>
  <rect x="700" y="1008" width="28" height="28"/>
  <rect x="728" y="1008" width="28" height="28"/>
  <rect x="868" y="1008" width="28" height="28"/>
  <rect x="896" y="1008" width="28" height="28"/>
  <rect x="952" y="1008" width="28" height="28"/>
  <rect x="980" y="1008" width="28" height="28"/>
  <rect x="420" y="1036" width="28" height="28"/>
  <rect x="448" y="1036" width="28" height="28"/>
  <rect x="560" y="1036" width="28" height="28"/>
  <rect x="616" y="1036" width="28" height="28"/>
  <rect x="728" y="1036" width="28" height="28"/>
  <rect x="756" y="1036" width="28" height="28"/>
  <rect x="924" y="1036" width="28" height="28"/>
  <rect x="952" y="1036" width="28" height="28"/>
  <rect x="980" y="1036" width="28" height="28"/>
  <rect x="1008" y="1036" width="28" height="28"/>
  <rect x="280" y="1064" width="28" height="28"/>
  <rect x="336" y="1064" width="28" height="28"/>
  <rect x="364" y="1064" width="28" height="28"/>
  <rect x="476" y="1064" width="28" height="28"/>
  <rect x="504" y="1064" width="28" height="28"/>
  <rect x="532" y="1064" width="28" height="28"/>
  <rect x="588" y="1064" width="28" height="28"/>
  <rect x="616" y="1064" width="28" height="28"/>
  <rect x="672" y="1064" width="28" height="28"/>
  <rect x="700" y="1064" width="28" height="28"/>
  <rect x="728" y="1064" width="28" height="28"/>
  <rect x="756" y="1064" width="28" height="28"/>
  <rect x="784" y="1064" width="28" height="28"/>
  <rect x="868" y="1064" width="28" height="28"/>
  <rect x="952" y="1064" width="28" height="28"/>
  <rect x="1008" y="1064" width="28" height="28"/>
  <rect x="1036" y="1064" width="28" height="28"/>
  <rect x="1064" y="1064" width="28" height="28"/>
  <g>
    <rect class="cls-1" x="85.4" y="85.4" width="137.2" height="137.2"/>
    <path d="M222.6,56H56v196h196V56h-29.4ZM222.6,222.6H85.4V85.4h137.2v137.2Z"/>
  </g>
  <g>
    <rect class="cls-1" x="925.4" y="85.4" width="137.2" height="137.2"/>
    <path d="M1062.6,56h-166.6v196h196V56h-29.4ZM1062.6,222.6h-137.2V85.4h137.2v137.2Z"/>
  </g>
  <g>
    <rect class="cls-1" x="85.4" y="925.4" width="137.2" height="137.2"/>
    <path d="M222.6,896H56v196h196v-196h-29.4ZM222.6,1062.6H85.4v-137.2h137.2v137.2Z"/>
  </g>
  <rect x="112" y="112" width="84" height="84"/>
  <rect x="952" y="112" width="84" height="84"/>
  <rect x="112" y="952" width="84" height="84"/>
</svg>