<?xml version="1.0" encoding="UTF-8"?>
<svg id="Layer_1" data-name="Layer 1" xmlns="http://www.w3.org/2000/svg" viewBox="0 0 512 170">
  <defs>
    <style>
      .cls-1 {
        fill-rule: evenodd;
      }
    </style>
  </defs>
  <path class="cls-1" d="M30.63,124.98v19.46h3.39v-8.04h4.55c3.31,0,4.07,1.09,4.26,4.15.11,1.81.13,3.15.63,3.88h3.64c-.79-.91-.84-2.52-1.03-4.83-.16-1.99-.41-3.88-2.9-4.43,2.03-.67,3.36-2.64,3.23-4.78,0-4.02-3.06-5.45-6.56-5.45h-9.19v.03h0ZM34.01,127.76h4.98c2.06,0,4.05.41,4.05,2.98,0,2.79-2.24,3.12-4.48,3.12h-4.55v-6.1h0ZM102.92,124.51c-5.96,0-9.41,4.48-9.41,10.2,0,6.07,3.77,10.2,9.35,10.2s9.35-4.12,9.35-10.2-3.8-10.2-9.29-10.2M102.86,127.41c3.64,0,5.91,2.84,5.91,7.27s-2.3,7.35-5.85,7.35-5.96-2.84-5.96-7.38,2.33-7.27,5.91-7.27M159.91,124.98v19.46h9.95c3.64,0,6.15-2.3,6.15-5.74.13-2.26-1.42-4.28-3.64-4.73,1.69-.66,2.8-2.29,2.79-4.1,0-2.9-2.11-4.89-6.32-4.89h-8.94s0-.01,0-.01ZM163.24,127.7h4.8c1.93,0,3.71.25,3.71,2.68,0,1.96-1.28,2.68-3.83,2.68h-4.64v-5.35h-.04s0,0,0,0ZM163.24,135.52h5.05c2.22,0,4.26.38,4.26,3.06,0,2.49-1.92,3.03-4.21,3.03h-5.11v-6.1h0ZM232.19,124.48c-5.96,0-9.41,4.48-9.41,10.2,0,6.07,3.77,10.2,9.35,10.2s9.35-4.12,9.35-10.2-3.8-10.2-9.29-10.2M232.15,127.41c3.64,0,5.91,2.84,5.91,7.27s-2.3,7.35-5.85,7.35-5.96-2.84-5.96-7.38,2.33-7.27,5.91-7.27M303.19,124.98h-15.82v2.96h6.21v16.5h3.42v-16.5h6.21v-2.96h-.01ZM353.53,124.98h-3.44v19.46h3.44v-19.46ZM418.96,137.02h-3.42c-.35,2.87-1.81,4.97-4.97,4.97-4.15,0-5.74-3.69-5.74-7.27s1.66-7.27,5.76-7.27c2.33-.17,4.41,1.45,4.81,3.74h3.39c-.65-4.55-4.26-6.64-8.18-6.64-5.91,0-9.27,4.64-9.27,10.17,0,6.15,3.64,10.2,9.09,10.2,4.86,0,8.11-3.15,8.47-7.87M480.64,130.72c-.16-4.34-3.31-6.12-7.27-6.12-4.37,0-7.19,2.22-7.19,5.69,0,3.96,3.2,4.64,7.33,5.71,2.87.74,4.55,1.09,4.55,3.12s-1.56,3.06-4.18,3.06-5.02-1.17-5.02-4.18h-3.36c0,4.7,3.58,6.89,8.18,6.89,3.83,0,7.73-1.7,7.73-6.1s-3.71-4.97-7.02-5.83c-3.74-.98-4.94-1.09-4.94-2.96,0-1.69,1.39-2.73,3.71-2.73s4.02.98,4.24,3.42h3.26v.02h-.01Z"/>
  <path class="cls-1" d="M304.35,62.78c0-4.7.21-14,2.06-16.65,2.73-3.93,9.92-3.93,15.18-3.93s12.65-.21,17.65.53c8.59,1.24,8.82,6.36,8.82,18.77v3.19h-43.71v-1.93h0ZM323.05,25.09c-10.67,0-23.9.65-30.31,9.09-4.97,6.49-5.02,16.52-5.28,24.54-.04,1.72-.34,2.62-.31,4.74v28.8c0,3.05.52,5.24,1.97,6.93,5.8,6.7,15.23,2.21,15.23-5.01v-12.36h43.71v12.67c0,9.92,17.27,11.64,17.27-1.59,0-10.57.44-34.99-.84-44.43-.32-2.77-.88-5.51-1.66-8.18-.76-2.33-1.87-4.53-3.31-6.52-6.36-7.46-17.46-8.51-27.85-8.64h-8.57l-.03-.04h0ZM77.54,58.98h-29.68v-16.77h30.9c3.71,0,7.67,3.9,7.67,8.23-.08,4.8-4.03,8.62-8.83,8.55h-.1M39.13,25.11c-4.69.06-8.48,3.85-8.54,8.54v60.13c0,11.16,17.27,11.88,17.27-.62v-17.41h17.86c.82,0,1.37.84,1.81,1.41l4.28,5.25c1.93,2.43,3.83,4.7,5.83,7.18s3.69,4.7,5.71,7.01c3.71,4.21,3.52,5.45,9.51,5.45,4.77,0,11.32-6.92,5.21-14.33l-9.09-11.23c-.56-.72-1.39-1.62-1.81-2.28,4.1-.91,10.19-5.97,12.62-9.95,10.23-16.65-.84-39.07-21.49-39.14h-39.16s0-.01,0-.01ZM128.19,64.08h0c0-4.71.28-14.59,1.81-17.49,2.42-4.43,10-4.36,15.4-4.36,26.88,0,26.47-1.34,26.47,25.01,0,5.71.07,13.77-4.25,16.36-1.81,1.08-6.08,1.65-8.8,1.72l-10.13.22c-3.93-.56-12.79.15-16.23-1.96s-3.39-5.8-3.87-9.46c0,0-.4-10.04-.4-10.04ZM147.15,25.11h3.25c6.52,0,13.79.13,19.46,1.42,7.8,1.72,13.16,4.49,16.16,12.1,2.8,7.11,3.1,16.75,3.1,24.8,0,26.85-2.73,38.97-33.8,38.97-11.13,0-28.78,1.13-36.78-6.9-9-9.02-7.27-26.05-7.27-38.08,0-9,1.28-20.46,8.08-26.19,5.85-4.93,16.99-6.08,27.78-6.11M199.96,33.66h0v60.12c0,4.75,3.84,8.61,8.59,8.62,1.99,0,3.92-.69,5.47-1.95,4.55-3.49,3.18-11.01,3.18-17.44v-27.19c2.11,1.39,3,3.05,4.21,4.36l18.18,19.62c.53.53.91.91,1.46,1.41l12.41,13.63c4.8,4.93,5.45,7.52,11.57,7.52,4.82,0,7.98-4.42,7.98-10.16v-56.97c0-12.47-13.82-12.72-16.72-4.55-1.15,3.25-.49,9.42-.49,13.44v27.84c-1.44-.91-1.65-1.75-2.8-2.93-1.05-.96-2.04-1.99-2.96-3.08l-4.08-4.55c-.55-.59-1-1.03-1.59-1.59-1.13-1.07-1.59-1.92-2.73-3-.53-.55-.91-.91-1.44-1.44-.66-.72-.75-1.03-1.44-1.75l-24.67-26.5c-5.24-4.7-14.16-.91-14.16,6.46M378.27,33.96h0v59.53c0,4.8,3.71,8.88,7.98,8.88,13.08.1,25.99-2.94,37.65-8.88.84-.44,1.37-.82,2.24-1.28,3.11-1.67,6.06-3.6,8.82-5.79,2.67-2.08,5.13-4.41,7.36-6.95,10.7-12.5,9.01-27.95,9.01-44.88,0-5.95-3.9-9.2-8.02-9.5h-1.21c-3.28.24-6.14,2.33-7.36,5.39-2.67,6.25,2.59,26.35-4,35.9-3.23,4.82-9.16,9.3-14.61,12.05-1.53.77-3.12,1.44-4.62,2.06-3.28,1.38-6.66,2.46-10.13,3.23-.91.2-5.18.98-5.77,1.22v-34.18c0-5.64.13-11.5,0-17.11-.26-11.41-17.27-11.2-17.27.34M464.16,33.65h0v60.81c.13,2.06,1.01,4,2.46,5.45,3.48,3.46,9.56,3.15,12.41-.21,1.51-1.71,2.35-3.92,2.36-6.21v-58.9c0-13.03-17.27-11.81-17.27-.91"/>
</svg>