<?xml version="1.0" encoding="UTF-8"?>
<svg id="_Слой_1" data-name="Слой 1" xmlns="http://www.w3.org/2000/svg" viewBox="0 0 1080 285.36">
  <defs>
    <style>
      .cls-1 {
        fill-rule: evenodd;
      }
    </style>
  </defs>
  <path class="cls-1" d="M138.91,213.82v34.63h6.03v-14.3h8.09c5.89,0,7.25,1.94,7.59,7.39.19,3.23.24,5.6,1.12,6.91h6.47c-1.41-1.62-1.5-4.48-1.84-8.6-.29-3.54-.73-6.91-5.16-7.88,3.62-1.2,5.98-4.7,5.74-8.51,0-7.15-5.45-9.7-11.68-9.7h-16.35v.06ZM144.94,218.78h8.86c3.66,0,7.2.73,7.2,5.3,0,4.97-3.99,5.55-7.97,5.55h-8.09v-10.85h0ZM267.57,212.99c-10.61,0-16.74,7.97-16.74,18.15,0,10.8,6.71,18.15,16.64,18.15s16.64-7.34,16.64-18.15-6.76-18.15-16.54-18.15M267.47,218.15c6.47,0,10.51,5.06,10.51,12.94s-4.09,13.08-10.42,13.08-10.61-5.06-10.61-13.13,4.14-12.94,10.51-12.94M368.99,213.82v34.63h17.71c6.47,0,10.95-4.09,10.95-10.21.24-4.02-2.52-7.61-6.47-8.41,3-1.17,4.98-4.07,4.97-7.29,0-5.16-3.75-8.7-11.24-8.7h-15.8l-.11-.02ZM374.92,218.67h8.54c3.44,0,6.61.44,6.61,4.77,0,3.49-2.28,4.77-6.81,4.77h-8.26v-9.53l-.08-.02ZM374.92,232.58h8.99c3.95,0,7.59.68,7.59,5.45,0,4.43-3.41,5.4-7.49,5.4h-9.09v-10.85ZM497.64,212.93c-10.61,0-16.74,7.97-16.74,18.15,0,10.8,6.71,18.15,16.64,18.15s16.64-7.34,16.64-18.15-6.76-18.15-16.54-18.15M497.56,218.15c6.47,0,10.51,5.06,10.51,12.94s-4.09,13.08-10.42,13.08-10.61-5.06-10.61-13.13,4.14-12.94,10.51-12.94M623.99,213.82h-28.16v5.26h11.05v29.37h6.08v-29.37h11.05v-5.26h-.02ZM713.58,213.82h-6.13v34.63h6.13v-34.63ZM830.03,235.26h-6.08c-.63,5.11-3.23,8.85-8.85,8.85-7.39,0-10.22-6.57-10.22-12.94s2.96-12.94,10.25-12.94c4.14-.3,7.84,2.58,8.56,6.66h6.03c-1.16-8.09-7.59-11.82-14.56-11.82-10.51,0-16.5,8.26-16.5,18.1,0,10.95,6.47,18.15,16.17,18.15,8.65,0,14.44-5.6,15.07-14.01M939.81,224.04c-.29-7.73-5.89-10.9-12.94-10.9-7.78,0-12.79,3.95-12.79,10.12,0,7.05,5.69,8.26,13.04,10.17,5.11,1.31,8.09,1.94,8.09,5.55s-2.77,5.45-7.44,5.45-8.94-2.09-8.94-7.44h-5.98c0,8.36,6.37,12.26,14.56,12.26,6.81,0,13.76-3.02,13.76-10.85s-6.61-8.85-12.5-10.37c-6.66-1.75-8.8-1.94-8.8-5.26,0-3.01,2.47-4.85,6.61-4.85s7.15,1.75,7.54,6.08h5.81v.03Z"/>
  <path class="cls-1" d="M626.06,103.13c0-8.36.37-24.92,3.66-29.63,4.85-6.99,17.66-6.99,27.02-6.99s22.51-.37,31.41.95c15.28,2.2,15.7,11.32,15.7,33.41v5.68h-77.79v-3.43ZM659.34,36.06c-18.99,0-42.53,1.15-53.95,16.17-8.85,11.55-8.94,29.4-9.4,43.67-.08,3.06-.6,4.66-.55,8.44v51.25c0,5.43.92,9.32,3.51,12.34,10.32,11.92,27.11,3.93,27.11-8.91v-22h77.79v22.55c0,17.66,30.73,20.72,30.73-2.83,0-18.81.78-62.27-1.5-79.07-.57-4.93-1.56-9.8-2.96-14.56-1.35-4.15-3.33-8.06-5.89-11.6-11.32-13.28-31.08-15.15-49.57-15.38h-15.25l-.06-.08ZM222.4,96.37h-52.82v-29.84h54.99c6.61,0,13.65,6.94,13.65,14.65-.14,8.54-7.17,15.35-15.71,15.21-.06,0-.11,0-.17,0M154.05,36.09c-8.35.11-15.09,6.85-15.2,15.2v107.02c0,19.86,30.73,21.14,30.73-1.1v-30.99h31.78c1.46,0,2.43,1.5,3.23,2.51l7.62,9.35c3.43,4.33,6.81,8.36,10.37,12.78s6.57,8.36,10.17,12.47c6.61,7.49,6.26,9.7,16.93,9.7,8.49,0,20.14-12.32,9.27-25.5l-16.17-19.99c-1-1.28-2.47-2.88-3.23-4.06,7.29-1.62,18.13-10.63,22.46-17.71,18.21-29.63-1.5-69.54-38.25-69.66h-69.54l-.16-.02ZM312.54,105.44h0c0-8.39.5-25.97,3.23-31.13,4.3-7.89,17.79-7.76,27.4-7.76,47.84,0,47.11-2.38,47.11,44.51,0,10.17.13,24.5-7.57,29.11-3.23,1.92-10.82,2.93-15.66,3.06l-18.03.4c-6.99-1-22.77.27-28.88-3.48s-6.03-10.32-6.89-16.84l-.71-17.87ZM346.28,36.09h5.79c11.6,0,24.55.23,34.64,2.52,13.88,3.06,23.42,7.99,28.76,21.54,4.98,12.65,5.51,29.81,5.51,44.14,0,47.79-4.85,69.35-60.16,69.35-19.81,0-51.22,2.01-65.45-12.28-16.01-16.06-12.94-46.37-12.94-67.78,0-16.01,2.28-36.42,14.38-46.61,10.42-8.77,30.23-10.82,49.44-10.87M440.28,51.31h0v107c-.01,8.46,6.84,15.33,15.29,15.34,3.55,0,6.98-1.22,9.73-3.47,8.09-6.21,5.66-19.59,5.66-31.04v-48.39c3.75,2.47,5.34,5.43,7.49,7.76l32.35,34.92c.95.95,1.62,1.62,2.6,2.51l22.09,24.26c8.54,8.77,9.7,13.38,20.59,13.38,8.57,0,14.2-7.86,14.2-18.08V54.11c0-22.19-24.6-22.64-29.76-8.09-2.05,5.79-.87,16.76-.87,23.92v49.55c-2.56-1.62-2.93-3.11-4.98-5.21-1.87-1.71-3.63-3.54-5.26-5.48l-7.26-8.09c-.97-1.05-1.78-1.83-2.83-2.83-2.01-1.91-2.83-3.41-4.85-5.34-.95-.97-1.62-1.62-2.56-2.56-1.18-1.28-1.33-1.83-2.56-3.11l-43.91-47.16c-9.32-8.36-25.2-1.62-25.2,11.5M757.62,51.83h0v105.95c0,8.54,6.61,15.8,14.2,15.8,23.28.18,46.26-5.23,67-15.8,1.5-.78,2.43-1.46,3.98-2.28,5.53-2.97,10.78-6.41,15.7-10.3,4.75-3.7,9.13-7.85,13.1-12.37,19.04-22.24,16.03-49.75,16.03-79.88,0-10.59-6.94-16.38-14.28-16.9h-2.15c-5.84.43-10.93,4.15-13.1,9.59-4.75,11.13,4.61,46.9-7.12,63.9-5.74,8.57-16.3,16.56-26.01,21.45-2.73,1.37-5.56,2.56-8.22,3.66-5.83,2.45-11.86,4.38-18.03,5.74-1.62.36-9.22,1.75-10.27,2.18v-60.83c0-10.04.23-20.46,0-30.45-.47-20.31-30.73-19.94-30.73.6M910.47,51.28h0v108.23c.23,3.66,1.79,7.11,4.38,9.7,6.19,6.16,17.01,5.61,22.09-.37,2.69-3.05,4.19-6.98,4.2-11.05V52.96c0-23.19-30.73-21.02-30.73-1.62"/>
</svg>