<?xml version="1.0" encoding="UTF-8"?>
<svg id="_Слой_1" data-name="Слой 1" xmlns="http://www.w3.org/2000/svg" viewBox="0 0 1080 285.36">
  <defs>
    <style>
      .cls-1 {
        fill: #231f20;
      }
    </style>
  </defs>
  <path class="cls-1" d="M65.17,38.16h27.72v-11.44h-40.81v55.66h13.09v-44.22ZM113.68,74.68h.44c.73,1.1,1.91,2.37,3.52,3.8,1.61,1.43,3.67,2.68,6.16,3.74,2.49,1.06,5.35,1.6,8.58,1.6,4.77,0,9.15-1.23,13.15-3.69,4-2.46,7.15-5.92,9.46-10.4,2.31-4.47,3.46-9.53,3.46-15.18s-1.15-10.8-3.46-15.23c-2.31-4.44-5.46-7.9-9.46-10.4-4-2.49-8.38-3.74-13.15-3.74-3.23,0-6.09.53-8.58,1.6-2.49,1.06-4.55,2.33-6.16,3.79-1.61,1.47-2.79,2.75-3.52,3.85h-.44v-7.7h-13.09v76.56h13.09v-28.6ZM115.71,45.09c1.36-2.71,3.25-4.8,5.67-6.27,2.42-1.47,5.13-2.2,8.14-2.2s5.48.73,7.87,2.2c2.38,1.47,4.25,3.56,5.61,6.27,1.36,2.71,2.04,5.87,2.04,9.46s-.68,6.73-2.04,9.41c-1.36,2.68-3.23,4.75-5.61,6.21-2.38,1.47-5,2.2-7.87,2.2-3.01,0-5.72-.73-8.14-2.2-2.42-1.47-4.31-3.54-5.67-6.21-1.36-2.68-2.04-5.81-2.04-9.41s.68-6.75,2.04-9.46ZM189.14,82.38l-6.16,20.9h13.53l22.77-76.56h-13.64l-12.87,44.22h-5.72l-11.44-44.22h-13.53l14.85,55.66h12.21ZM238.97,38.16h25.63v44.22h13.09V26.72h-51.81v55.66h13.09v-44.22ZM342.7,82.38V26.72h-51.81v55.66h13.09v-44.22h25.63v44.22h13.09ZM365.9,80.12c3.96,2.46,8.32,3.69,13.09,3.69,3.3,0,6.2-.53,8.69-1.6,2.49-1.06,4.55-2.31,6.16-3.74,1.61-1.43,2.79-2.7,3.52-3.8h.44v7.7h12.98V26.72h-12.98v7.7h-.44c-.73-1.1-1.91-2.38-3.52-3.85-1.61-1.47-3.67-2.73-6.16-3.79-2.49-1.06-5.39-1.6-8.69-1.6-4.77,0-9.13,1.25-13.09,3.74-3.96,2.49-7.09,5.96-9.4,10.4-2.31,4.44-3.46,9.52-3.46,15.23s1.15,10.71,3.46,15.18c2.31,4.47,5.44,7.94,9.4,10.4ZM368.49,45.09c1.36-2.71,3.21-4.8,5.56-6.27,2.35-1.47,4.95-2.2,7.81-2.2,3.08,0,5.81.73,8.19,2.2,2.38,1.47,4.27,3.56,5.67,6.27,1.39,2.71,2.09,5.87,2.09,9.46s-.7,6.73-2.09,9.41c-1.39,2.68-3.28,4.75-5.67,6.21-2.38,1.47-5.11,2.2-8.19,2.2-2.86,0-5.46-.73-7.81-2.2-2.35-1.47-4.2-3.54-5.56-6.21-1.36-2.68-2.03-5.81-2.03-9.41s.68-6.75,2.03-9.46ZM140.81,129.55c-8.05-4.11-17.32-6.17-27.83-6.17h-61.75v133h28.5v-39.9h33.25c10.51,0,19.79-2.06,27.83-6.17,8.04-4.11,14.28-9.72,18.71-16.81,4.43-7.09,6.65-14.95,6.65-23.56s-2.22-16.46-6.65-23.56c-4.44-7.09-10.67-12.7-18.71-16.82ZM130.27,184.37c-4.31,3.67-10.39,5.51-18.24,5.51h-32.3v-39.9h32.3c7.85,0,13.93,1.84,18.24,5.51,4.3,3.67,6.46,8.49,6.46,14.44s-2.16,10.77-6.46,14.44ZM285.12,128.98c-11.15-6.27-23.56-9.4-37.24-9.4s-26.1,3.13-37.24,9.4c-11.15,6.27-19.92,14.79-26.31,25.56-6.4,10.77-9.6,22.55-9.6,35.34s3.2,24.58,9.6,35.34c6.39,10.77,15.17,19.29,26.31,25.55,11.14,6.27,23.56,9.41,37.24,9.41s26.09-3.13,37.24-9.41c11.14-6.27,19.92-14.79,26.31-25.55,6.39-10.76,9.6-22.54,9.6-35.34s-3.2-24.57-9.6-35.34c-6.4-10.76-15.17-19.29-26.31-25.56ZM285.12,212.49c-3.68,6.59-8.77,11.75-15.29,15.48-6.53,3.74-13.84,5.61-21.95,5.61s-15.42-1.87-21.94-5.61c-6.53-3.73-11.62-8.9-15.29-15.48-3.68-6.58-5.51-14.12-5.51-22.61s1.83-16.02,5.51-22.61c3.67-6.58,8.77-11.75,15.29-15.48,6.52-3.74,13.84-5.61,21.94-5.61s15.42,1.87,21.95,5.61c6.52,3.74,11.62,8.9,15.29,15.48,3.67,6.59,5.51,14.13,5.51,22.61s-1.84,16.03-5.51,22.61ZM428.95,225.88c-6.59,5.13-15.01,7.7-25.27,7.7-8.49,0-15.96-1.81-22.42-5.42-6.46-3.61-11.47-8.71-15.01-15.29-3.55-6.58-5.32-14.25-5.32-22.99s1.83-16.02,5.51-22.61c3.67-6.58,8.77-11.75,15.29-15.48,6.52-3.74,13.84-5.61,21.94-5.61,10,0,18.21,2.31,24.6,6.94,6.4,4.62,10.86,10.23,13.4,16.81h29.45c-2.41-8.86-6.4-17.1-11.97-24.7-5.58-7.6-13.01-13.77-22.32-18.52s-20.36-7.12-33.16-7.12c-14.06,0-26.63,3.07-37.71,9.21-11.09,6.15-19.76,14.57-26.03,25.27-6.27,10.71-9.41,22.64-9.41,35.82s3.14,25.11,9.41,35.82c6.27,10.71,14.94,19.13,26.03,25.27,11.08,6.14,23.66,9.21,37.71,9.21,12.54,0,23.5-2.5,32.87-7.5,9.37-5,16.97-11.52,22.8-19.57,5.82-8.04,10.07-16.75,12.73-26.12h-29.45c-2.54,7.48-7.1,13.78-13.68,18.91ZM573.73,175.63h-58.9v-52.25h-28.5v133h28.5v-54.15h58.9v54.15h28.5V123.38h-28.5v52.25ZM646.88,123.38l-35.15,133h29.45l7.6-29.45h56.05l7.6,29.45h29.45l-35.15-133h-59.85ZM655.42,200.33l13.3-50.35h16.15l13.3,50.35h-42.75ZM838.77,175.63h-58.9v-52.25h-28.5v133h28.5v-54.15h58.9v54.15h28.5V123.38h-28.5v52.25ZM1019.18,154.54c-6.4-10.76-15.17-19.29-26.31-25.56-11.15-6.27-23.56-9.4-37.24-9.4s-26.1,3.13-37.24,9.4c-11.15,6.27-19.92,14.79-26.31,25.56-6.4,10.77-9.6,22.55-9.6,35.34s3.2,24.58,9.6,35.34c6.39,10.77,15.17,19.29,26.31,25.55,11.14,6.27,23.56,9.41,37.24,9.41s26.09-3.13,37.24-9.41c11.14-6.27,19.92-14.79,26.31-25.55,6.39-10.76,9.6-22.54,9.6-35.34s-3.2-24.57-9.6-35.34ZM992.86,212.49c-3.68,6.59-8.77,11.75-15.29,15.48-6.53,3.74-13.84,5.61-21.95,5.61s-15.42-1.87-21.94-5.61c-6.53-3.73-11.62-8.9-15.29-15.48-3.68-6.58-5.51-14.12-5.51-22.61s1.83-16.02,5.51-22.61c3.67-6.58,8.77-11.75,15.29-15.48,6.52-3.74,13.84-5.61,21.94-5.61s15.42,1.87,21.95,5.61c6.52,3.74,11.62,8.9,15.29,15.48,3.67,6.59,5.51,14.13,5.51,22.61s-1.84,16.03-5.51,22.61Z"/>
</svg>