<?xml version="1.0" encoding="UTF-8"?>
<svg id="Layer_1" data-name="Layer 1" xmlns="http://www.w3.org/2000/svg" viewBox="0 0 512 170">
  <defs>
    <style>
      .cls-1 {
        fill: #231f20;
      }
    </style>
  </defs>
  <path class="cls-1" d="M15.86,32.14h14.02v-5.79H9.24v28.15h6.62v-22.36ZM40.39,50.61h.22c.37.56.97,1.2,1.78,1.92.81.72,1.86,1.36,3.12,1.89,1.26.54,2.71.81,4.34.81,2.41,0,4.63-.62,6.65-1.87s3.62-2.99,4.78-5.26c1.17-2.26,1.75-4.82,1.75-7.68s-.58-5.46-1.75-7.7c-1.17-2.25-2.76-4-4.78-5.26-2.02-1.26-4.24-1.89-6.65-1.89-1.63,0-3.08.27-4.34.81-1.26.54-2.3,1.18-3.12,1.92-.81.74-1.41,1.39-1.78,1.95h-.22v-3.89h-6.62v38.72h6.62s0-14.46,0-14.46ZM41.42,35.64c.69-1.37,1.64-2.43,2.87-3.17s2.59-1.11,4.12-1.11,2.77.37,3.98,1.11c1.2.74,2.15,1.8,2.84,3.17s1.03,2.97,1.03,4.78-.34,3.4-1.03,4.76-1.63,2.4-2.84,3.14c-1.2.74-2.53,1.11-3.98,1.11s-2.89-.37-4.12-1.11c-1.22-.74-2.18-1.79-2.87-3.14-.69-1.36-1.03-2.94-1.03-4.76s.34-3.41,1.03-4.78ZM78.55,54.5l-3.12,10.57h6.84l11.52-38.72h-6.9l-6.51,22.36h-2.89l-5.79-22.36h-6.84l7.51,28.15h6.18,0ZM103.75,32.14h12.96v22.36h6.62v-28.15h-26.2v28.15h6.62s0-22.36,0-22.36ZM156.21,54.5v-28.15h-26.2v28.15h6.62v-22.36h12.96v22.36h6.62ZM167.95,53.36c2,1.24,4.21,1.87,6.62,1.87,1.67,0,3.14-.27,4.39-.81,1.26-.54,2.3-1.17,3.12-1.89.81-.72,1.41-1.37,1.78-1.92h.22v3.89h6.56v-28.14h-6.56v3.89h-.22c-.37-.56-.97-1.2-1.78-1.95s-1.86-1.38-3.12-1.92-2.73-.81-4.39-.81c-2.41,0-4.62.63-6.62,1.89s-3.59,3.01-4.75,5.26c-1.17,2.25-1.75,4.81-1.75,7.7s.58,5.42,1.75,7.68c1.17,2.26,2.75,4.02,4.75,5.26h0ZM169.26,35.64c.69-1.37,1.62-2.43,2.81-3.17s2.5-1.11,3.95-1.11c1.56,0,2.94.37,4.14,1.11s2.16,1.8,2.87,3.17c.7,1.37,1.06,2.97,1.06,4.78s-.35,3.4-1.06,4.76c-.7,1.36-1.66,2.4-2.87,3.14-1.2.74-2.58,1.11-4.14,1.11-1.45,0-2.76-.37-3.95-1.11-1.19-.74-2.12-1.79-2.81-3.14-.69-1.36-1.03-2.94-1.03-4.76s.34-3.41,1.03-4.78ZM54.11,78.36c-4.07-2.08-8.76-3.12-14.07-3.12H8.81v67.26h14.41v-20.18h16.82c5.32,0,10.01-1.04,14.07-3.12,4.07-2.08,7.22-4.92,9.46-8.5s3.36-7.56,3.36-11.92-1.12-8.32-3.36-11.92c-2.25-3.59-5.4-6.42-9.46-8.51h0ZM48.78,106.08c-2.18,1.86-5.25,2.79-9.22,2.79h-16.34v-20.18h16.34c3.97,0,7.04.93,9.22,2.79,2.17,1.86,3.27,4.29,3.27,7.3s-1.09,5.45-3.27,7.3h0ZM127.09,78.07c-5.64-3.17-11.92-4.75-18.83-4.75s-13.2,1.58-18.83,4.75c-5.64,3.17-10.07,7.48-13.31,12.93-3.24,5.45-4.86,11.4-4.86,17.87s1.62,12.43,4.86,17.87c3.23,5.45,7.67,9.76,13.31,12.92,5.63,3.17,11.92,4.76,18.83,4.76s13.19-1.58,18.83-4.76c5.63-3.17,10.07-7.48,13.31-12.92,3.23-5.44,4.86-11.4,4.86-17.87s-1.62-12.43-4.86-17.87c-3.24-5.44-7.67-9.76-13.31-12.93ZM127.09,120.3c-1.86,3.33-4.44,5.94-7.73,7.83-3.3,1.89-7,2.84-11.1,2.84s-7.8-.95-11.1-2.84c-3.3-1.89-5.88-4.5-7.73-7.83-1.86-3.33-2.79-7.14-2.79-11.43s.93-8.1,2.79-11.43c1.86-3.33,4.44-5.94,7.73-7.83,3.3-1.89,7-2.84,11.1-2.84s7.8.95,11.1,2.84c3.3,1.89,5.88,4.5,7.73,7.83,1.86,3.33,2.79,7.15,2.79,11.43s-.93,8.11-2.79,11.43ZM199.83,127.08c-3.33,2.59-7.59,3.89-12.78,3.89-4.29,0-8.07-.92-11.34-2.74-3.27-1.83-5.8-4.41-7.59-7.73-1.8-3.33-2.69-7.21-2.69-11.63s.93-8.1,2.79-11.43c1.86-3.33,4.44-5.94,7.73-7.83,3.3-1.89,7-2.84,11.1-2.84,5.06,0,9.21,1.17,12.44,3.51,3.24,2.34,5.49,5.17,6.78,8.5h14.89c-1.22-4.48-3.24-8.65-6.05-12.49-2.82-3.84-6.58-6.96-11.29-9.37s-10.3-3.6-16.77-3.6c-7.11,0-13.47,1.55-19.07,4.66-5.61,3.11-9.99,7.37-13.16,12.78-3.17,5.42-4.76,11.45-4.76,18.12s1.59,12.7,4.76,18.12,7.56,9.67,13.16,12.78c5.6,3.11,11.97,4.66,19.07,4.66,6.34,0,11.88-1.26,16.62-3.79s8.58-5.83,11.53-9.9c2.94-4.07,5.09-8.47,6.44-13.21h-14.89c-1.28,3.78-3.59,6.97-6.92,9.56v-.02ZM273.06,101.66h-29.79v-26.42h-14.41v67.26h14.41v-27.39h29.79v27.39h14.41v-67.26h-14.41v26.42ZM310.05,75.24l-17.78,67.26h14.89l3.84-14.89h28.35l3.84,14.89h14.89l-17.78-67.26h-30.27,0ZM314.37,114.15l6.73-25.46h8.17l6.73,25.46h-21.62ZM407.1,101.66h-29.79v-26.42h-14.41v67.26h14.41v-27.39h29.79v27.39h14.41v-67.26h-14.41v26.42ZM498.34,91c-3.24-5.44-7.67-9.76-13.31-12.93-5.64-3.17-11.92-4.75-18.83-4.75s-13.2,1.58-18.83,4.75c-5.64,3.17-10.07,7.48-13.31,12.93-3.24,5.45-4.86,11.4-4.86,17.87s1.62,12.43,4.86,17.87c3.23,5.45,7.67,9.76,13.31,12.92,5.63,3.17,11.92,4.76,18.83,4.76s13.19-1.58,18.83-4.76c5.63-3.17,10.07-7.48,13.31-12.92,3.23-5.44,4.86-11.4,4.86-17.87s-1.62-12.43-4.86-17.87h0ZM485.03,120.3c-1.86,3.33-4.44,5.94-7.73,7.83-3.3,1.89-7,2.84-11.1,2.84s-7.8-.95-11.1-2.84c-3.3-1.89-5.88-4.5-7.73-7.83-1.86-3.33-2.79-7.14-2.79-11.43s.93-8.1,2.79-11.43c1.86-3.33,4.44-5.94,7.73-7.83,3.3-1.89,7-2.84,11.1-2.84s7.8.95,11.1,2.84c3.3,1.89,5.88,4.5,7.73,7.83,1.86,3.33,2.79,7.15,2.79,11.43s-.93,8.11-2.79,11.43Z"/>
</svg>